<svg xmlns="http://www.w3.org/2000/svg" width="15.334" height="16" viewBox="0 0 15.334 16"><path d="M1065.333,1959.667a2.669,2.669,0,0,0-1.493-2.393,2.655,2.655,0,0,0-2.807.287,2.685,2.685,0,0,0-.98,2.647,2.693,2.693,0,0,0,.68,1.3,2.732,2.732,0,0,0,1.267.747V1963a1.343,1.343,0,0,1-1.333,1.333h-6a2.684,2.684,0,0,0-1.333.36v-2.44a2.72,2.72,0,0,0,1.54-1.087,2.668,2.668,0,1,0-4.413,0,2.72,2.72,0,0,0,1.54,1.087v5.5a2.673,2.673,0,1,0,1.333,0V1967a1.343,1.343,0,0,1,1.333-1.333h6a2.663,2.663,0,0,0,2.667-2.667v-.747a2.681,2.681,0,0,0,2-2.587Zm-14,0a1.331,1.331,0,1,1,1.333,1.333,1.343,1.343,0,0,1-1.333-1.333Zm2.667,10.667a1.331,1.331,0,1,1-1.333-1.333,1.343,1.343,0,0,1,1.333,1.333Zm8.667-9.333a1.331,1.331,0,1,1,1.333-1.333,1.343,1.343,0,0,1-1.333,1.333Z" transform="translate(-1049.999 -1957)" fill="#3991f7"/></svg>