<svg xmlns="http://www.w3.org/2000/svg" width="131" height="95" viewBox="0 0 131 95"><g transform="translate(-635 -314)"><rect width="131" height="95" rx="47.5" transform="translate(635 314)" fill="#fbfbfb"/><g transform="translate(656.197 333.628)"><path d="M881.059,1223H858.088a2.1,2.1,0,0,0-2.088,2.088v18.795a2.1,2.1,0,0,0,2.088,2.088h22.971a2.1,2.1,0,0,0,2.088-2.088v-18.795a2.1,2.1,0,0,0-2.088-2.088Zm0,2.088v5.221H858.088v-5.221Zm-22.971,7.309H865.4v11.486h-7.309Zm22.971,11.486H867.485V1232.4h13.574Z" transform="translate(-809.162 -1188.481)" fill="#0052cc"/><path d="M1945.7,1945.758a.979.979,0,0,1-.989.989h-23.723a.979.979,0,0,1-.988-.989v-19.769a.989.989,0,1,1,1.977,0v13.433l6.217-6.227a1.142,1.142,0,0,1,.326-.208.933.933,0,0,1,.751,0,1.142,1.142,0,0,1,.326.208l3.252,3.262,6.514-6.514h-2.56a.988.988,0,1,1,0-1.977h4.942a.979.979,0,0,1,.989.988v4.942a.989.989,0,1,1-1.977,0v-2.56l-7.206,7.216a1.136,1.136,0,0,1-.326.208.931.931,0,0,1-.751,0,1.136,1.136,0,0,1-.326-.208l-3.252-3.262-6.919,6.919v2.56h22.734a.979.979,0,0,1,.989.989Z" transform="translate(-1862.069 -1925)" fill="#3991f7"/><path d="M2982.418,1296.709a10.034,10.034,0,0,0-9.265,6.188,9.863,9.863,0,0,0-.568,5.8,10.019,10.019,0,0,0,7.877,7.877,9.866,9.866,0,0,0,5.8-.569,10.035,10.035,0,0,0-3.847-19.3Zm0,16.725a6.677,6.677,0,0,1-3.713-1.121,6.806,6.806,0,0,1-2.475-3.01,6.706,6.706,0,0,1,8.747-8.747,6.8,6.8,0,0,1,3.01,2.475,6.689,6.689,0,0,1-5.57,10.4ZM3005.4,1302.4a1.621,1.621,0,0,0-.284-.652,1.548,1.548,0,0,0-.518-.468l-6.239-3.562-.034-7.024a1.652,1.652,0,0,0-.15-.7,1.613,1.613,0,0,0-.435-.569,23.076,23.076,0,0,0-7.676-4.315,1.368,1.368,0,0,0-.686-.084,1.559,1.559,0,0,0-.669.2l-6.289,3.512-6.3-3.512a1.509,1.509,0,0,0-.652-.217,1.887,1.887,0,0,0-.686.083,23.719,23.719,0,0,0-7.676,4.332,1.638,1.638,0,0,0-.586,1.271l-.033,7.041-6.238,3.546a1.837,1.837,0,0,0-.535.485,1.76,1.76,0,0,0-.284.652,22.288,22.288,0,0,0,0,8.68,1.761,1.761,0,0,0,.284.652,1.838,1.838,0,0,0,.535.485l6.238,3.546.017,7.041a1.794,1.794,0,0,0,.167.7,1.767,1.767,0,0,0,.435.569,23.367,23.367,0,0,0,7.676,4.315,1.887,1.887,0,0,0,.686.084,1.75,1.75,0,0,0,.652-.2l6.3-3.529,6.289,3.529a1.749,1.749,0,0,0,.82.2,1.891,1.891,0,0,0,.535-.084,23.717,23.717,0,0,0,7.676-4.332,1.636,1.636,0,0,0,.585-1.271l.034-7.041,6.239-3.546a1.844,1.844,0,0,0,.535-.485,1.771,1.771,0,0,0,.284-.652A22.288,22.288,0,0,0,3005.4,1302.4Zm-3.127,7.309-5.971,3.4a1.616,1.616,0,0,0-.636.619c-.117.217-.251.435-.385.635a1.818,1.818,0,0,0-.251.886l-.033,6.74a19.783,19.783,0,0,1-5.3,2.994l-6.021-3.362a1.745,1.745,0,0,0-.82-.2h-.8a1.533,1.533,0,0,0-.853.2l-6.038,3.362a20.024,20.024,0,0,1-5.318-2.96l-.017-6.74a1.655,1.655,0,0,0-.251-.886c-.134-.2-.268-.418-.385-.635a1.512,1.512,0,0,0-.619-.635l-5.988-3.412a19.412,19.412,0,0,1,0-5.9l5.971-3.412a1.575,1.575,0,0,0,.619-.619c.134-.218.251-.435.385-.636a1.656,1.656,0,0,0,.251-.886l.033-6.74a19.786,19.786,0,0,1,5.3-2.994l6.021,3.362a1.534,1.534,0,0,0,.853.2h.769a1.537,1.537,0,0,0,.853-.2l6.021-3.362a19.13,19.13,0,0,1,5.318,2.977l.033,6.723a1.656,1.656,0,0,0,.251.886c.134.2.251.418.385.636a1.512,1.512,0,0,0,.619.635l5.988,3.412a19.017,19.017,0,0,1,0,5.921Z" transform="translate(-2958.995 -1284.998)" fill="#343330"/></g></g></svg>