<svg xmlns="http://www.w3.org/2000/svg" xmlns:xlink="http://www.w3.org/1999/xlink" width="145" height="137" viewBox="0 0 145 137"><defs><filter id="a" x="80" y="0" width="65" height="65" filterUnits="userSpaceOnUse"><feOffset dy="3" input="SourceAlpha"/><feGaussianBlur stdDeviation="3" result="b"/><feFlood flood-opacity="0.161"/><feComposite operator="in" in2="b"/><feComposite in="SourceGraphic"/></filter></defs><g transform="translate(-826 -344)"><g transform="translate(77 137)"><g transform="translate(749 228)" fill="#fff" stroke="#b2b2b2" stroke-width="1"><rect width="116" height="116" rx="7" stroke="none"/><rect x="0.5" y="0.5" width="115" height="115" rx="6.5" fill="none"/></g><line x2="115" transform="translate(749.5 245.5)" fill="none" stroke="#b2b2b2" stroke-width="1"/><circle cx="2" cy="2" r="2" transform="translate(770 235)" fill="#68b192"/><circle cx="2" cy="2" r="2" transform="translate(762 235)" fill="#e2b765"/><circle cx="2" cy="2" r="2" transform="translate(754 235)" fill="#ff839b"/><line x2="32" transform="translate(791.5 256.5)" fill="none" stroke="#707070" stroke-linecap="round" stroke-width="1"/><g transform="translate(765 263)" fill="#fff" stroke="#707070" stroke-width="1"><rect width="85" height="11" rx="3" stroke="none"/><rect x="0.5" y="0.5" width="84" height="10" rx="2.5" fill="none"/></g><g transform="translate(765 278)" fill="#fff" stroke="#707070" stroke-width="1"><rect width="85" height="11" rx="3" stroke="none"/><rect x="0.5" y="0.5" width="84" height="10" rx="2.5" fill="none"/></g><g transform="translate(765 293)" fill="#fff" stroke="#707070" stroke-width="1"><rect width="85" height="23" rx="3" stroke="none"/><rect x="0.5" y="0.5" width="84" height="22" rx="2.5" fill="none"/></g><g transform="translate(793 322)" fill="none" stroke="#68b192" stroke-width="1"><rect width="28" height="10" rx="5" stroke="none"/><rect x="0.5" y="0.5" width="27" height="9" rx="4.5" fill="none"/></g></g><g transform="matrix(1, 0, 0, 1, 826, 344)" filter="url(#a)"><circle cx="23.5" cy="23.5" r="23.5" transform="translate(89 6)" fill="#fff"/></g><g transform="translate(926.343 360.472)"><path d="M7.728,16.457A10.153,10.153,0,0,1,17.869,6.316h2.713V7.358a.738.738,0,0,0,.384.658.844.844,0,0,0,.356.082.773.773,0,0,0,.411-.11l3.234-2.056a.736.736,0,0,0,0-1.261h0L21.733,2.589a.766.766,0,0,0-.767-.027.738.738,0,0,0-.384.658V4.261H17.869A12.218,12.218,0,0,0,5.7,16.457a1.014,1.014,0,1,0,2.028,0Z" transform="translate(-5.7 -2.471)" fill="#0052cc"/><path d="M88.221,42.322a1.019,1.019,0,0,0-.987-.822.466.466,0,0,0-.192.027,1.028,1.028,0,0,0-.795,1.206c.082.439.137.877.192,1.316a1.016,1.016,0,0,0,1.014.932h.082a1.016,1.016,0,0,0,.932-1.1A15.409,15.409,0,0,0,88.221,42.322Z" transform="translate(-64.157 -30.803)" fill="#0052cc"/><path d="M78.8,26.841a1.017,1.017,0,0,0,1.4.329,1.1,1.1,0,0,0,.466-.63.94.94,0,0,0-.137-.767,10.205,10.205,0,0,0-.932-1.288,1.08,1.08,0,0,0-.685-.384H78.8a1.035,1.035,0,0,0-.63.219,1.08,1.08,0,0,0-.384.685,1,1,0,0,0,.219.74A7.409,7.409,0,0,1,78.8,26.841Z" transform="translate(-58.025 -18.172)" fill="#0052cc"/><path d="M85.487,60.827a.933.933,0,0,0-.274-.027,1.053,1.053,0,0,0-.987.74,9.4,9.4,0,0,1-.439,1.233,1.026,1.026,0,0,0,1.891.795,9.8,9.8,0,0,0,.521-1.507,1.046,1.046,0,0,0-.082-.767A1.1,1.1,0,0,0,85.487,60.827Z" transform="translate(-62.328 -44.814)" fill="#0052cc"/><path d="M74.317,77.5h-.027a1.023,1.023,0,0,0-.713.329,9.882,9.882,0,0,1-.959.9,1,1,0,0,0-.137,1.425,1.033,1.033,0,0,0,1.425.137,10.882,10.882,0,0,0,1.151-1.1A1,1,0,0,0,75,77.774,1.081,1.081,0,0,0,74.317,77.5Z" transform="translate(-54.008 -56.937)" fill="#0052cc"/><path d="M38.234,89.3a6.729,6.729,0,0,1-1.288-.274A.932.932,0,0,0,36.672,89a1.026,1.026,0,0,0-.493.137.925.925,0,0,0-.466.6A1.037,1.037,0,0,0,36.425,91a13.092,13.092,0,0,0,1.562.329,1.038,1.038,0,0,0,1.151-.877.982.982,0,0,0-.192-.74A1.127,1.127,0,0,0,38.234,89.3Z" transform="translate(-27.463 -65.285)" fill="#0052cc"/><path d="M20.5,79.974a1.081,1.081,0,0,0-.685-.274h-.027a1.023,1.023,0,0,0-.713.329,1.035,1.035,0,0,0-.274.74,1.023,1.023,0,0,0,.329.713,10.807,10.807,0,0,0,1.233.987,1.073,1.073,0,0,0,1.425-.247,1.016,1.016,0,0,0-.247-1.425A10.586,10.586,0,0,1,20.5,79.974Z" transform="translate(-15.21 -58.534)" fill="#0052cc"/><path d="M10.056,64.285a.979.979,0,0,0-.521-.576A1.149,1.149,0,0,0,9.1,63.6a1.6,1.6,0,0,0-.356.055,1.026,1.026,0,0,0-.6,1.316,13.668,13.668,0,0,0,.63,1.453,1.017,1.017,0,1,0,1.809-.932A9.411,9.411,0,0,1,10.056,64.285Z" transform="translate(-7.425 -46.846)" fill="#0052cc"/><path d="M57.84,88.21a1.149,1.149,0,0,0-.439-.11,1.375,1.375,0,0,0-.329.055,10.857,10.857,0,0,1-1.261.356.961.961,0,0,0-.63.439,1.057,1.057,0,0,0-.137.767,1.042,1.042,0,0,0,1.206.795,9.826,9.826,0,0,0,1.535-.439.979.979,0,0,0,.576-.521.938.938,0,0,0,.027-.767A1.243,1.243,0,0,0,57.84,88.21Z" transform="translate(-41.505 -64.631)" fill="#0052cc"/><path d="M36.4,37.672a.181.181,0,0,1-.027-.164,4.569,4.569,0,0,0,.219-.548.182.182,0,0,1,.137-.11l1.7-.164a.511.511,0,0,0,.466-.521V34.712a.532.532,0,0,0-.466-.521L36.729,34a.182.182,0,0,1-.137-.11,3.267,3.267,0,0,0-.219-.548.129.129,0,0,1,.027-.164l1.069-1.316a.542.542,0,0,0-.027-.713L36.4,30.08a.513.513,0,0,0-.713-.027l-1.316,1.069a.129.129,0,0,1-.164.027c-.192-.082-.356-.164-.548-.247a.182.182,0,0,1-.11-.137l-.164-1.7a.511.511,0,0,0-.521-.466H31.412a.532.532,0,0,0-.521.466l-.164,1.7a.182.182,0,0,1-.11.137,1.978,1.978,0,0,0-.548.247c-.11.027-.192.027-.219-.027l-1.316-1.069a.542.542,0,0,0-.713.027L26.78,31.121a.513.513,0,0,0-.027.713l1.069,1.316a.181.181,0,0,1,.027.164,4.569,4.569,0,0,0-.219.548.182.182,0,0,1-.137.11l-1.727.192a.511.511,0,0,0-.466.521v1.453a.532.532,0,0,0,.466.521l1.7.164a.182.182,0,0,1,.137.11,3.267,3.267,0,0,0,.219.548.129.129,0,0,1-.027.164L26.725,38.96a.542.542,0,0,0,.027.713l1.041,1.041a.513.513,0,0,0,.713.027l1.316-1.069a.181.181,0,0,1,.164-.027,4.568,4.568,0,0,0,.548.219.182.182,0,0,1,.11.137l.164,1.7a.511.511,0,0,0,.521.466h1.453A.532.532,0,0,0,33.3,41.7l.164-1.7a.182.182,0,0,1,.11-.137,1.978,1.978,0,0,0,.548-.247.129.129,0,0,1,.164.027l1.316,1.069a.542.542,0,0,0,.713-.027l1.041-1.041a.513.513,0,0,0,.027-.713Zm-4.3.356A2.631,2.631,0,1,1,34.728,35.4,2.632,2.632,0,0,1,32.1,38.028Z" transform="translate(-19.928 -21.439)" fill="#0052cc"/></g></g></svg>