<svg xmlns="http://www.w3.org/2000/svg" width="24.667" height="24.669" viewBox="0 0 24.667 24.669"><path d="M2849.752,973.816a.971.971,0,0,1,0,1.344l-6.641,6.642a1.1,1.1,0,0,1-.313.206.938.938,0,0,1-.721,0,1.1,1.1,0,0,1-.313-.206l-2.846-2.846a.958.958,0,0,1,0-1.344.955.955,0,0,1,1.347,0l2.173,2.177,5.968-5.972a1.092,1.092,0,0,1,.313-.206.937.937,0,0,1,.721,0A1.1,1.1,0,0,1,2849.752,973.816Zm6.917,3.518a12.345,12.345,0,1,1-3.615-8.718A12.32,12.32,0,0,1,2856.669,977.334Zm-1.9,0a10.455,10.455,0,1,0-3.065,7.377A10.5,10.5,0,0,0,2854.771,977.334Z" transform="translate(-2832.002 -965)" fill="#3991f7"/></svg>