<svg xmlns="http://www.w3.org/2000/svg" width="14.583" height="14.583" viewBox="0 0 14.583 14.583">
    <g transform="translate(0.25 0.25)">
        <path
            d="M10.841,13.132a.6.6,0,0,0,.853,0l2.414-2.414a.6.6,0,1,0-.854-.854L11.87,11.248V3.854a.6.6,0,0,0-1.207,0v7.395L9.279,9.864a.6.6,0,0,0-.854.854l2.414,2.414Z"
            transform="translate(-4.226 -3.25)" stroke="#000" stroke-width="0.5" />
        <path
            d="M16.73,14.25a.6.6,0,0,0-.6.6v2.414a1.007,1.007,0,0,1-1.006,1.006H5.463a1.007,1.007,0,0,1-1.006-1.006V14.854a.6.6,0,0,0-1.207,0v2.414a2.215,2.215,0,0,0,2.213,2.213H15.12a2.215,2.215,0,0,0,2.213-2.213V14.854A.6.6,0,0,0,16.73,14.25Z"
            transform="translate(-3.25 -5.398)" stroke="#000" stroke-width="0.5" />
    </g>
</svg>