<svg xmlns="http://www.w3.org/2000/svg" width="12.981" height="14.515" viewBox="0 0 12.981 14.515"><path d="M12.416,18.8a1.27,1.27,0,0,1-1.269-1.269V12.885a.486.486,0,0,0-.154-.354L7.968,9.712a2,2,0,0,1-.633-1.455V6.188a1.4,1.4,0,0,1,1.4-1.4h9.676a1.4,1.4,0,0,1,1.4,1.4V8.259a2,2,0,0,1-.629,1.452l-3.013,2.82a.485.485,0,0,0-.154.353v3.7a1.263,1.263,0,0,1-.795,1.177l-2.335.942A1.269,1.269,0,0,1,12.416,18.8ZM8.738,5.879a.309.309,0,0,0-.309.309v2.07a.9.9,0,0,0,.285.654l3.025,2.819a1.583,1.583,0,0,1,.5,1.154v4.646a.175.175,0,0,0,.241.162l2.335-.942a.174.174,0,0,0,.11-.162v-3.7a1.583,1.583,0,0,1,.5-1.152l3.012-2.819a.9.9,0,0,0,.283-.653V6.188a.309.309,0,0,0-.308-.309Z" transform="translate(-7.085 -4.535)" stroke="#000" stroke-width="0.5"/></svg>