<svg xmlns="http://www.w3.org/2000/svg" width="17.996" height="17.998" viewBox="0 0 17.996 17.998"><path d="M1737.81,1923.007a1.294,1.294,0,0,0-.561.069,1.307,1.307,0,0,0-.491.291,1.275,1.275,0,0,0-.332.457,1.43,1.43,0,0,0-.118.561v3.516a1.383,1.383,0,0,0,.318.893,1.336,1.336,0,0,0,.831.471,2.842,2.842,0,0,1,1.384.665,2.769,2.769,0,0,1-1.384,4.8,2.776,2.776,0,0,1-3.226-2.582,2.7,2.7,0,0,1,.436-1.751,1.379,1.379,0,0,0,.249-.914,1.349,1.349,0,0,0-.4-.858l-2.388-2.451a1.461,1.461,0,0,0-.478-.311,1.385,1.385,0,0,0-1.564.408A8.988,8.988,0,0,0,1737,1941h.131a9.015,9.015,0,0,0,.678-17.991Zm-6.666,4.14,2.388,2.444h0a3.764,3.764,0,0,0-.644,1.717h-3.468A7.555,7.555,0,0,1,1731.144,1927.146Zm-1.724,5.545h3.482a4.18,4.18,0,0,0,3.406,3.406v3.482a7.595,7.595,0,0,1-6.888-6.888Zm12.958,4.686a7.571,7.571,0,0,1-4.686,2.2V1936.1a4.177,4.177,0,0,0,2.139-1.059,4.147,4.147,0,0,0-.083-6.154,4.19,4.19,0,0,0-2.056-.983v-3.516a7.659,7.659,0,0,1,6.922,7.725A7.581,7.581,0,0,1,1742.379,1937.378Z" transform="translate(-1728.004 -1923)" fill="#343330"/></svg>