<svg xmlns="http://www.w3.org/2000/svg" width="14.25" height="14.25" viewBox="0 0 14.25 14.25"><g transform="translate(-2.25 -2.25)"><path d="M9.375,2.25A7.125,7.125,0,1,0,16.5,9.375,7.125,7.125,0,0,0,9.375,2.25Zm0,13.154A6.029,6.029,0,1,1,15.4,9.375,6.029,6.029,0,0,1,9.375,15.4Z"/><path d="M12.26,13.635h-.183V9.8a.555.555,0,0,0-.548-.548H10.8a.548.548,0,0,0,0,1.1h.183v3.288H10.8a.548.548,0,0,0,0,1.1H12.26a.548.548,0,1,0,0-1.1Z" transform="translate(-2.154 -1.885)"/><circle cx="0.548" cy="0.548" r="0.548" transform="translate(8.681 5.356)"/></g></svg>