<svg xmlns="http://www.w3.org/2000/svg" width="19.281" height="19.281" viewBox="0 0 19.281 19.281"><path d="M2840.9,2628.483v-.741a.741.741,0,1,1,1.483,0v.741a.741.741,0,1,1-1.483,0Zm6.674,8.157a5.95,5.95,0,1,1-1.743-4.19A5.91,5.91,0,0,1,2847.573,2636.64Zm-1.483,0a4.45,4.45,0,0,0-2.744-4.108,4.375,4.375,0,0,0-2.573-.252,4.442,4.442,0,0,0-3.493,3.493,4.376,4.376,0,0,0,.252,2.573,4.45,4.45,0,0,0,8.558-1.706Zm-10.908-5.406a.745.745,0,0,0,1.053-1.053l-.742-.741a.744.744,0,0,0-1.053,1.053Zm0,10.812-.741.742a.745.745,0,0,0,1.053,1.053l.742-.742a.851.851,0,0,0,.156-.245.7.7,0,0,0,0-.563.668.668,0,0,0-.4-.4.7.7,0,0,0-.563,0A.848.848,0,0,0,2835.181,2642.046Zm12.391-10.6a.735.735,0,0,0,.282-.06.849.849,0,0,0,.245-.155l.741-.742a.744.744,0,0,0-1.053-1.053l-.741.741a.754.754,0,0,0-.2.378.709.709,0,0,0,.044.43.7.7,0,0,0,.267.334A.758.758,0,0,0,2847.573,2631.449Zm.527,10.6a.744.744,0,0,0-1.053,1.053l.741.742a.86.86,0,0,0,.245.156.7.7,0,0,0,.564,0,.857.857,0,0,0,.245-.156.846.846,0,0,0,.156-.245.7.7,0,0,0,0-.563.841.841,0,0,0-.156-.245Zm-14.616-6.147h-.741a.741.741,0,1,0,0,1.483h.741a.741.741,0,1,0,0-1.483Zm8.157,8.157a.734.734,0,0,0-.741.741v.742a.741.741,0,1,0,1.483,0v-.742a.734.734,0,0,0-.741-.741Zm8.9-8.157h-.742a.741.741,0,1,0,0,1.483h.742a.741.741,0,1,0,0-1.483Z" transform="translate(-2832 -2627)" fill="#ffbf00"/></svg>