<svg xmlns="http://www.w3.org/2000/svg" width="20" height="14" viewBox="0 0 20 14"><g transform="translate(-5131 -48)"><path d="M184,1560a1,1,0,0,1-.995,1h-18.01a.995.995,0,1,1,0-1.99h18.01A.991.991,0,0,1,184,1560Z" transform="translate(4967 -1505)"/><path d="M183.005,1554.99a.995.995,0,1,0,0-1.99h-12.01a.995.995,0,1,0,0,1.99Z" transform="translate(4967 -1505)"/><path d="M184,1566a1,1,0,0,1-.995,1h-8.01a.995.995,0,1,1,0-1.99h8.01A1,1,0,0,1,184,1566Z" transform="translate(4967 -1505)"/></g></svg>