<svg xmlns="http://www.w3.org/2000/svg" width="14.53" height="14.22" viewBox="0 0 14.53 14.22"><g transform="translate(-1052.919 -300.734)"><path d="M9.794,41.285a.251.251,0,1,0,.39-.316L8.962,39.462h4.561a.251.251,0,0,0,0-.5H8.962l1.222-1.506a.251.251,0,0,0-.39-.316L8.241,39.054a.251.251,0,0,0,0,.316Z" transform="translate(1045 268.631)" stroke="#000" stroke-width="0.5"/><path d="M37.474,61.088a.251.251,0,0,0-.316.39l1.915,1.555a.251.251,0,0,0,.316,0L41.3,61.478a.251.251,0,0,0-.316-.39L39.481,62.31V57.751a.251.251,0,0,0-.5,0V62.31Z" transform="translate(1020.953 251.599)" stroke="#000" stroke-width="0.5"/><path d="M62.047,37.121a.251.251,0,0,0-.037.353l1.222,1.506H58.671a.251.251,0,1,0,0,.5h4.561L62.01,40.989a.251.251,0,1,0,.39.316l1.555-1.915a.251.251,0,0,0,0-.316L62.4,37.158A.251.251,0,0,0,62.047,37.121Z" transform="translate(1003.172 268.614)" stroke="#000" stroke-width="0.5"/><path d="M39.23,14.7a.251.251,0,0,0,.251-.253V9.884l1.506,1.222a.251.251,0,1,0,.316-.39L39.389,9.161a.251.251,0,0,0-.316,0l-1.915,1.555a.251.251,0,0,0,.316.39L38.98,9.884v4.559A.251.251,0,0,0,39.23,14.7Z" transform="translate(1020.953 291.895)" stroke="#000" stroke-width="0.5"/></g></svg>