<svg xmlns="http://www.w3.org/2000/svg" width="20.001" height="20.001" viewBox="0 0 20.001 20.001"><path d="M3094,1161.5a1.5,1.5,0,0,1-.25.83,1.55,1.55,0,0,1-.68.56,1.485,1.485,0,0,1-.86.08,1.494,1.494,0,0,1-1.18-1.18,1.484,1.484,0,0,1,.08-.86,1.55,1.55,0,0,1,.56-.68,1.5,1.5,0,0,1,2.33,1.25Zm7-1.5a1.5,1.5,0,0,0-.83.25,1.55,1.55,0,0,0-.56.68,1.484,1.484,0,0,0-.08.86,1.494,1.494,0,0,0,1.18,1.18,1.485,1.485,0,0,0,.86-.08,1.55,1.55,0,0,0,.68-.56A1.5,1.5,0,0,0,3101,1160Zm8.5,3a1.5,1.5,0,0,0,.83-.25,1.55,1.55,0,0,0,.56-.68,1.484,1.484,0,0,0,.08-.86,1.494,1.494,0,0,0-1.18-1.18,1.485,1.485,0,0,0-.86.08,1.55,1.55,0,0,0-.68.56,1.5,1.5,0,0,0,1.25,2.33Zm-17,5.5a1.5,1.5,0,0,0-.83.25,1.55,1.55,0,0,0-.56.68,1.484,1.484,0,0,0-.08.86,1.494,1.494,0,0,0,1.18,1.18,1.485,1.485,0,0,0,.86-.08,1.55,1.55,0,0,0,.68-.56,1.5,1.5,0,0,0-1.25-2.33Zm8.5,0a1.5,1.5,0,0,0-.83.25,1.55,1.55,0,0,0-.56.68,1.484,1.484,0,0,0-.08.86,1.494,1.494,0,0,0,1.18,1.18,1.485,1.485,0,0,0,.86-.08,1.55,1.55,0,0,0,.68-.56,1.5,1.5,0,0,0-1.25-2.33Zm8.5,0a1.5,1.5,0,0,0-.83.25,1.55,1.55,0,0,0-.56.68,1.484,1.484,0,0,0-.08.86,1.494,1.494,0,0,0,1.18,1.18,1.485,1.485,0,0,0,.86-.08,1.55,1.55,0,0,0,.68-.56,1.5,1.5,0,0,0-1.25-2.33Zm-17,8.5a1.5,1.5,0,0,0-.83.25,1.55,1.55,0,0,0-.56.68,1.484,1.484,0,0,0-.08.86,1.494,1.494,0,0,0,1.18,1.18,1.485,1.485,0,0,0,.86-.08,1.55,1.55,0,0,0,.68-.56,1.5,1.5,0,0,0-1.25-2.33Zm8.5,0a1.5,1.5,0,0,0-.83.25,1.55,1.55,0,0,0-.56.68,1.484,1.484,0,0,0-.08.86,1.494,1.494,0,0,0,1.18,1.18,1.485,1.485,0,0,0,.86-.08,1.55,1.55,0,0,0,.68-.56A1.5,1.5,0,0,0,3101,1177Zm8.5,0a1.5,1.5,0,0,0-.83.25,1.55,1.55,0,0,0-.56.68,1.484,1.484,0,0,0-.08.86,1.494,1.494,0,0,0,1.18,1.18,1.485,1.485,0,0,0,.86-.08,1.55,1.55,0,0,0,.68-.56,1.5,1.5,0,0,0-1.25-2.33Z" transform="translate(-3091 -1160)" fill="#3991f7"/></svg>