<svg xmlns="http://www.w3.org/2000/svg" width="45" height="34.757" viewBox="0 0 45 34.757"><g transform="translate(-647.558 -244.294)"><g transform="matrix(-0.951, 0.309, -0.309, -0.951, 665.053, 262.742)"><path d="M1.929,13.721a.9.9,0,0,0,.763.419H9.871a.9.9,0,0,0,.763-.419.872.872,0,0,0,.039-.86l-.8-1.581V6.7C11.727,5.55,12.563,3.513,12.563.884a.891.891,0,0,0-.9-.884H.9A.891.891,0,0,0,0,.884C0,3.513.836,5.55,2.692,6.7v4.578l-.8,1.581A.872.872,0,0,0,1.929,13.721Zm2.215-1.348.248-.489a.873.873,0,0,0,.095-.4v-5.3a.882.882,0,0,0-.5-.79A4.069,4.069,0,0,1,1.834,1.768h8.9A4.068,4.068,0,0,1,8.573,5.4a.882.882,0,0,0-.5.79v5.3a.872.872,0,0,0,.095.4l.248.489Z" transform="translate(0 3.807)" fill="#dedede" fill-rule="evenodd"/><path d="M0,4.759H1.9V.952a.952.952,0,0,0-1.9,0Z" transform="translate(5.33 0)" fill="#dedede" fill-rule="evenodd"/></g><g transform="matrix(0.951, 0.309, -0.309, 0.951, 671.045, 244.294)"><path d="M3.473.755A1.621,1.621,0,0,1,4.847,0H17.773a1.622,1.622,0,0,1,1.374.755A1.57,1.57,0,0,1,19.218,2.3L17.773,5.149v8.243c3.341,2.075,4.847,5.742,4.847,10.476A1.6,1.6,0,0,1,21,25.46H1.616A1.6,1.6,0,0,1,0,23.868c0-4.733,1.506-8.4,4.847-10.476V5.149L3.4,2.3A1.57,1.57,0,0,1,3.473.755ZM7.461,3.182l.447.88a1.572,1.572,0,0,1,.171.712v9.547a1.589,1.589,0,0,1-.893,1.423c-2.178,1.072-3.566,3.1-3.884,6.533H19.318c-.318-3.432-1.706-5.46-3.884-6.533a1.589,1.589,0,0,1-.893-1.423V4.774a1.57,1.57,0,0,1,.171-.712l.447-.88Z" transform="translate(0 0)" fill="#2763ef" fill-rule="evenodd"/><path d="M0,0H3.427V6.854A1.714,1.714,0,0,1,0,6.854Z" transform="translate(9.596 23.746)" fill="#2763ef" fill-rule="evenodd"/></g></g></svg>