<svg xmlns="http://www.w3.org/2000/svg" width="7.7" height="11" viewBox="0 0 7.7 11"><g transform="translate(-5 -2)"><path d="M6.182,2.257A.552.552,0,0,1,6.65,2h4.4a.552.552,0,0,1,.468.257.535.535,0,0,1,.024.527l-.492.969V6.559a3.9,3.9,0,0,1,1.65,3.566.546.546,0,0,1-.55.542H5.55A.546.546,0,0,1,5,10.125,3.9,3.9,0,0,1,6.65,6.559V3.753l-.492-.969A.535.535,0,0,1,6.182,2.257Zm1.358.826.152.3a.535.535,0,0,1,.058.242v3.25a.541.541,0,0,1-.3.484A2.494,2.494,0,0,0,6.124,9.583h5.452a2.494,2.494,0,0,0-1.322-2.224.541.541,0,0,1-.3-.484V3.625a.534.534,0,0,1,.058-.242l.152-.3Z" fill="#0071fb" fill-rule="evenodd"/><path d="M11,17h1.167v2.333a.583.583,0,0,1-1.167,0Z" transform="translate(-2.733 -6.917)" fill="#0071fb" fill-rule="evenodd"/></g></svg>