<svg xmlns="http://www.w3.org/2000/svg" width="26.484" height="24.076" viewBox="0 0 26.484 24.076">
  <g id="new-hweather-icon" transform="translate(0 -3.97)">
    <path id="Path_8283" data-name="Path 8283" d="M228.251,104.957a6.331,6.331,0,0,1,5.708,2.3.3.3,0,0,0,.411.057,6.26,6.26,0,1,0-9.922-5.648.3.3,0,0,0,.177.3,7.69,7.69,0,0,1,3.34,2.854A.3.3,0,0,0,228.251,104.957Z" transform="translate(-210.937 -92.03)" fill="#fce6aa"/>
    <path id="Path_8289" data-name="Path 8289" d="M22.423,225.3a4.419,4.419,0,0,0-6.337-4.811,5.739,5.739,0,0,0-11.207,2.179A5.3,5.3,0,0,0,5.3,233.245H22.511a3.973,3.973,0,1,0-.088-7.945Z" transform="translate(0 -205.199)" fill="#81adef"/>
  </g>
</svg>