<svg xmlns="http://www.w3.org/2000/svg" width="19.294" height="16.246" viewBox="0 0 19.294 16.246"><g transform="translate(0.5 0.5)"><path d="M561,496.622a.762.762,0,0,0,.762.762H576.69l-5.559,5.559a.759.759,0,0,0-.165.831.765.765,0,0,0,.7.471.754.754,0,0,0,.292-.059.775.775,0,0,0,.248-.165l6.86-6.86a.789.789,0,0,0,.165-.248.765.765,0,0,0,0-.584.789.789,0,0,0-.165-.248l-6.86-6.859a.762.762,0,1,0-1.079,1.078l5.559,5.559H561.761a.762.762,0,0,0-.762.762Z" transform="translate(-560.999 -488.999)" fill="#343330" stroke="#000" stroke-width="1"/></g></svg>