<svg xmlns="http://www.w3.org/2000/svg" width="16.005" height="16" viewBox="0 0 16.005 16"><path d="M2976.807,2508.1a.607.607,0,0,0-.289-.163.624.624,0,0,0-.339.006,6.912,6.912,0,0,1-8.613-8.618.622.622,0,0,0-.452-.791.669.669,0,0,0-.333.006,8.162,8.162,0,0,0-4.933,11.463,8.172,8.172,0,0,0,12.215,2.875,8.271,8.271,0,0,0,2.9-4.149.621.621,0,0,0,.006-.339A.606.606,0,0,0,2976.807,2508.1Zm-3.5,3.773a6.9,6.9,0,1,1-7.207-11.707,8.168,8.168,0,0,0,8.079,9.328,8.246,8.246,0,0,0,1.174-.081A6.991,6.991,0,0,1,2973.305,2511.869Z" transform="translate(-2960.987 -2498.511)" fill="#343330"/></svg>