<svg xmlns="http://www.w3.org/2000/svg" width="28.041" height="20.569" viewBox="0 0 28.041 20.569"><path d="M2975.765,1031a10.33,10.33,0,0,0-9.2,5.685,7.627,7.627,0,0,0-3.048.187,7.392,7.392,0,0,0-2.711,1.384,7.429,7.429,0,0,0-2.776,5.292,7.486,7.486,0,0,0,7.451,8.022h10.285a10.284,10.284,0,1,0,0-20.569Zm0,18.7H2965.48a5.61,5.61,0,0,1,0-11.219c.131,0,.262,0,.383.009a10.5,10.5,0,0,0-.383,2.8.935.935,0,1,0,1.87,0,8.411,8.411,0,1,1,8.415,8.414Zm-.935-8.414v-4.675a.935.935,0,1,1,1.87,0v4.675a.935.935,0,1,1-1.87,0Zm2.337,4.207a1.4,1.4,0,0,1-.234.776,1.45,1.45,0,0,1-.635.524,1.39,1.39,0,0,1-.8.075,1.4,1.4,0,0,1-1.1-1.1,1.389,1.389,0,0,1,.075-.8,1.449,1.449,0,0,1,.523-.636,1.4,1.4,0,0,1,2.179,1.169Z" transform="translate(-2958.009 -1031)" fill="#d82e59"/></svg>