<svg xmlns="http://www.w3.org/2000/svg" width="16.3" height="17.465" viewBox="0 0 16.3 17.465"><path d="M36.829,14.055a.582.582,0,1,0-.5,1.054,3.992,3.992,0,0,1,2.3,2.786.582.582,0,0,0,1.143-.223A5.154,5.154,0,0,0,36.829,14.055Z" transform="translate(-26.685 -10.507)"/><path d="M5.164,14.85l-.408,1.121H4.582a.582.582,0,1,0,0,1.164H19.718a.582.582,0,1,0,0-1.164h-.174l-.408-1.121v-4.7a6.989,6.989,0,0,0-4.8-6.638,2.329,2.329,0,0,0-4.362,0,6.989,6.989,0,0,0-4.8,6.638ZM12.15,3.164a1.165,1.165,0,0,0-1.141.93.582.582,0,0,1-.415.445A5.824,5.824,0,0,0,6.329,10.15v4.8a.583.583,0,0,1-.035.2l-.3.82H18.3l-.3-.82a.583.583,0,0,1-.035-.2v-4.8a5.824,5.824,0,0,0-4.266-5.611.582.582,0,0,1-.415-.445A1.165,1.165,0,0,0,12.15,3.164Z" transform="translate(-4 -2)" fill-rule="evenodd"/><path d="M27.911,55a.873.873,0,0,1-1.746,0H25a2.038,2.038,0,0,0,4.075,0Z" transform="translate(-18.887 -39.573)"/></svg>