<svg xmlns="http://www.w3.org/2000/svg" width="12.125" height="12" viewBox="0 0 12.125 12"><path d="M124.6,53.4a4.931,4.931,0,0,0-.622-6.782,5.057,5.057,0,0,0-6.877.206,4.93,4.93,0,0,0-.208,6.806,5.056,5.056,0,0,0,6.852.616l2.985,2.954a.609.609,0,0,0,.581.148.6.6,0,0,0,.424-.42.594.594,0,0,0-.149-.575Zm-7.726-3.047A3.734,3.734,0,0,1,117.98,47.7a3.82,3.82,0,0,1,5.363,0,3.726,3.726,0,0,1,0,5.308,3.817,3.817,0,0,1-5.362,0,3.738,3.738,0,0,1-1.112-2.652Z" transform="translate(-115.627 -45.367)" fill="#333"/></svg>