<svg xmlns="http://www.w3.org/2000/svg" width="10.925" height="12" viewBox="0 0 10.925 12"><g transform="translate(-1745 -885.231)"><path d="M307.354,493.43a.984.984,0,1,1-1.7,0Z" transform="translate(1443.975 402.319)" fill-rule="evenodd"/><path d="M104.525,10.214a.71.71,0,1,1,0-1.417c.828,0,.871-2.668.871-3.627a3.671,3.671,0,0,1,2.963-3.835.966.966,0,1,1,1.786,0,3.671,3.671,0,0,1,2.963,3.835c0,.959.044,3.627.871,3.627a.709.709,0,1,1,0,1.417Zm2.222-4.794c.044.417-.654.459-.7,0a3.193,3.193,0,0,1,1.264-2.793.33.33,0,1,1,.305.584c-.7.375-.871,1.5-.871,2.21Z" transform="translate(1641.226 885.231)" fill-rule="evenodd"/></g></svg>