<svg xmlns="http://www.w3.org/2000/svg" width="7.248" height="8.728" viewBox="0 0 7.248 8.728"><g transform="translate(-2489.17 -1664)"><path d="M71.682,15.555v.05a.579.579,0,0,0,.579.579h.074l-.2-.2-.46-.46h0c0,.008,0,.015,0,.024Z" transform="translate(2423.479 1649.073)" fill="#3dab69"/><path d="M21.906,10h-4.5a.629.629,0,0,0-.628.628V18.1a.629.629,0,0,0,.628.628H23.4a.629.629,0,0,0,.628-.628V12.123a.629.629,0,0,0-.628-.628h-.049a.816.816,0,0,1-.815-.815v-.05A.629.629,0,0,0,21.907,10Zm-3.735,1.2h2.351a.177.177,0,1,1,0,.353H18.171a.177.177,0,0,1,0-.353Zm4.465,6.329H18.172a.177.177,0,1,1,0-.353h4.465a.177.177,0,1,1,0,.353Zm0-1.992H18.172a.177.177,0,0,1,0-.353h4.465a.177.177,0,1,1,0,.353Zm0-2.344a.177.177,0,1,1,0,.353H18.172a.177.177,0,0,1,0-.353h4.465Z" transform="translate(2472.39 1654)" fill="#3dab69"/></g></svg>