<svg xmlns="http://www.w3.org/2000/svg" width="20.341" height="18" viewBox="0 0 20.341 18"><path d="M16.018,55.473a3.8,3.8,0,0,0,3.795,3.795h9.715a3.8,3.8,0,0,0,3.795-3.795V54.259a.759.759,0,0,1,1.518,0v1.214a5.313,5.313,0,0,1-5.313,5.313H19.813A5.313,5.313,0,0,1,14.5,55.473V54.259a.759.759,0,0,1,1.518,0Z" transform="translate(-14.5 -42.786)" fill-rule="evenodd"/><path d="M32.722,47.722a.759.759,0,0,0,0,1.073l2.444,2.444a2.884,2.884,0,0,0,4.079,0L41.689,48.8a.759.759,0,0,0-1.073-1.073l-2.444,2.444a1.366,1.366,0,0,1-1.932,0L33.8,47.722A.759.759,0,0,0,32.722,47.722Z" transform="translate(-27.035 -38.536)" fill-rule="evenodd"/><path d="M46.259,17.5a.759.759,0,0,1,.759.759v8.5a.759.759,0,1,1-1.518,0v-8.5A.759.759,0,0,1,46.259,17.5Z" transform="translate(-36.089 -17.5)" fill-rule="evenodd"/></svg>