<svg xmlns="http://www.w3.org/2000/svg" width="8.445" height="12" viewBox="0 0 8.445 12"><g transform="translate(-129.324 -59.59)"><path d="M238.045,165.863a4.225,4.225,0,1,1-4.223-4.373,4.3,4.3,0,0,1,4.223,4.373" transform="translate(-100.276 -101.9)" fill="#333"/><path d="M304.64,456.61a1.038,1.038,0,0,0,.773.665v.18a.665.665,0,1,0,1.33,0v-.18a.978.978,0,0,0,.773-.665Z" transform="translate(-172.552 -386.53)" fill="#333"/><path d="M302.96,425.81h3v.665h-3Z" transform="translate(-170.924 -356.899)" fill="#333"/><path d="M302.96,392.21h3v.665h-3Z" transform="translate(-170.924 -324.484)" fill="#333"/><path d="M.342,0A.341.341,0,0,0,0,.342.331.331,0,0,0,.342.683,2.953,2.953,0,0,0,1.2.843a2.442,2.442,0,0,0,.811-.16.342.342,0,1,0,0-.683,2.331,2.331,0,0,1-.788.152A3.343,3.343,0,0,1,.342,0Z" transform="translate(132.075 61.567) rotate(121)" fill="#fff"/></g></svg>