<svg xmlns="http://www.w3.org/2000/svg" width="10.75" height="7" viewBox="0 0 10.75 7"><g transform="translate(-2414 -1972)"><path d="M.386,201.912a.361.361,0,0,0,.386-.327v-2a.36.36,0,0,0-.386-.327.36.36,0,0,0-.386.327v2A.361.361,0,0,0,.386,201.912Z" transform="translate(2414 1774.914)" fill="#d17b41"/><path d="M57,141.26v3.047c0,.121.173.22.386.22s.386-.1.386-.22V141.26c0-.121-.173-.22-.386-.22S57,141.139,57,141.26Z" transform="translate(2358.903 1832.716)" fill="#d17b41"/><path d="M116,66.184v6.392a.4.4,0,0,0,.771,0V66.184a.4.4,0,0,0-.771,0Z" transform="translate(2301.872 1906.12)" fill="#d17b41"/><path d="M177,126.105v3.667c0,.146.162.265.374.265s.374-.119.374-.265v-3.667c0-.146-.162-.265-.374-.265S177,125.959,177,126.105Z" transform="translate(2242.901 1847.561)" fill="#d17b41"/><path d="M237,205.844v1.751a.4.4,0,0,0,.771,0v-1.751a.4.4,0,0,0-.771,0Z" transform="translate(2184.91 1768.781)" fill="#d17b41"/><path d="M299,139.785v3.107c0,.124.173.225.386.225s.386-.1.386-.225v-3.107c0-.124-.173-.225-.386-.225S299,139.661,299,139.785Z" transform="translate(2124.979 1834.161)" fill="#d17b41"/></g></svg>