<svg xmlns="http://www.w3.org/2000/svg" width="22.77" height="18" viewBox="0 0 22.77 18"><g transform="translate(0 0)"><path d="M81.385,423a3,3,0,1,0,3.036,3,3.022,3.022,0,0,0-3.036-3m0,7.5a4.5,4.5,0,1,1,4.553-4.5,4.527,4.527,0,0,1-4.553,4.5m0,3c4.522,0,8.954-4.022,9.83-7.5-.876-3.479-5.309-7.5-9.83-7.5s-8.954,4.021-9.83,7.5C72.431,429.479,76.863,433.5,81.385,433.5ZM70,426c.632-3.214,5.1-9,11.385-9s10.752,5.786,11.385,9c-.632,3.215-5.1,9-11.385,9S70.632,429.215,70,426Z" transform="translate(-70 -417)" fill-rule="evenodd"/></g></svg>