<svg xmlns="http://www.w3.org/2000/svg" width="9" height="7.474" viewBox="0 0 9 7.474"><g transform="translate(-2608 -1666)"><path d="M78.836,22.7l-.386-.386h0c0,.008,0,.016,0,.025h0v.051a.6.6,0,0,0,.6.6h.076l-.29-.29Z" transform="translate(2537.251 1644.312)" fill="#4f90e5"/><path d="M18.352,18.319H18.3a.841.841,0,0,1-.84-.84v-.051a.648.648,0,0,0-.648-.648H10.648a.648.648,0,0,0-.648.648v6.179a.648.648,0,0,0,.648.648h7.7A.648.648,0,0,0,19,23.606V18.968a.648.648,0,0,0-.648-.648Zm-3.482-.871a1.064,1.064,0,1,1-1.064,1.064A1.066,1.066,0,0,1,14.87,17.448Zm3.644,6.076a.243.243,0,0,1-.243.243H10.73a.243.243,0,0,1-.243-.243V22.443a.239.239,0,0,1,.072-.171l1.981-1.981a.974.974,0,0,1,1.376,0l1.667,1.667a.246.246,0,0,0,.173.072h0a.237.237,0,0,0,.17-.072l.64-.639a.975.975,0,0,1,1.376,0l.5.5a.239.239,0,0,1,.072.171v1.533Z" transform="translate(2598 1649.22)" fill="#4f90e5"/></g></svg>