<svg xmlns="http://www.w3.org/2000/svg" width="12.311" height="12" viewBox="0 0 12.311 12"><g transform="translate(-5267 -177.875)"><path d="M169.476,103.159v1.8a2.781,2.781,0,0,0,2.781,2.781h2.781v-1.391h-2.781a1.391,1.391,0,0,1-1.391-1.391v-1.8l1.391,1.391.984-.984-2.578-2.578a.7.7,0,0,0-.984,0l-2.578,2.578.984.984Z" transform="translate(5099.898 77.092)"/><path d="M253.537,103.05a2.229,2.229,0,0,0-.672-1.591,2.315,2.315,0,0,0-1.621-.659H248v1.5h3.248a.772.772,0,0,1,.54.22.743.743,0,0,1,.224.53v7.5a.743.743,0,0,1-.224.53.772.772,0,0,1-.54.22h-5.35a.772.772,0,0,1-.54-.22.743.743,0,0,1-.224-.53v-1.5H243.6v1.5a2.228,2.228,0,0,0,.672,1.591,2.315,2.315,0,0,0,1.621.659h5.35a2.315,2.315,0,0,0,1.621-.659,2.229,2.229,0,0,0,.672-1.591Z" transform="translate(5025.774 77.076)"/></g></svg>