<svg xmlns="http://www.w3.org/2000/svg" width="9.5" height="9.5" viewBox="0 0 9.5 9.5"><g transform="translate(-4.979 -4.979)"><g transform="translate(4.979 4.979)"><path d="M9.729,4.979a4.75,4.75,0,1,0,4.75,4.75A4.755,4.755,0,0,0,9.729,4.979Zm0,8.55a3.8,3.8,0,1,1,3.8-3.8A3.8,3.8,0,0,1,9.729,13.529Z" transform="translate(-4.979 -4.979)" fill="#666"/><path d="M46.442,26.493a.473.473,0,0,0,.007-.074V24.349a.475.475,0,0,0-.95,0v2.071c0,.04-.005.5.144.634l1.469,1.317a.475.475,0,1,0,.634-.707Z" transform="translate(-41.225 -21.88)" fill="#666"/></g></g></svg>