<svg xmlns="http://www.w3.org/2000/svg" width="70.839" height="70.8" viewBox="0 0 70.839 70.8"><g transform="translate(-213.6 -295)"><path d="M49.1,83.4A32.563,32.563,0,0,0,81.6,50.9v-.3a.945.945,0,0,0-1-1H50.4V19.4a.945.945,0,0,0-1-1h-.3a32.5,32.5,0,0,0,0,65Zm-.7-63V50.6a.945.945,0,0,0,1,1H79.6A30.5,30.5,0,1,1,48.4,20.4Z" transform="translate(197 282.4)" fill="#3892ff"/><path d="M59.5,12.6a1.077,1.077,0,0,0-.8.2,1.135,1.135,0,0,0-.3.8v27a.945.945,0,0,0,1,1h27a1.136,1.136,0,0,0,.8-.3.778.778,0,0,0,.2-.8l-.1-.4A32.457,32.457,0,0,0,59.9,12.7Zm.9,2.2A30.4,30.4,0,0,1,85.2,39.6H60.4Z" transform="translate(197 282.4)"/></g></svg>