<svg xmlns="http://www.w3.org/2000/svg" width="19.031" height="12.687" viewBox="0 0 19.031 12.687"><path d="M936.976,1102.09a11.248,11.248,0,0,0-2.193-3.051,10.212,10.212,0,0,0-14.536,0,11.174,11.174,0,0,0-2.192,3.051.6.6,0,0,0-.055.254.649.649,0,0,0,.055.26,11.286,11.286,0,0,0,2.192,3.045,10.212,10.212,0,0,0,14.536,0,11.276,11.276,0,0,0,2.193-3.045.649.649,0,0,0,.055-.26A.6.6,0,0,0,936.976,1102.09Zm-9.461,5.328a8.725,8.725,0,0,1-6.338-2.639,2.536,2.536,0,0,1,0-4.872,8.93,8.93,0,0,1,12.676,0,10.544,10.544,0,0,1,1.833,2.436A9.431,9.431,0,0,1,927.515,1107.418Zm0-8.881a3.8,3.8,0,0,0-.743,7.536,3.732,3.732,0,0,0,2.2-.216,3.806,3.806,0,0,0-1.457-7.321Zm0,6.344a2.537,2.537,0,1,1,.971-4.884,2.569,2.569,0,0,1,1.139.939,2.536,2.536,0,0,1-2.11,3.946Z" transform="translate(-918 -1096)" fill="#343330"/></svg>