<svg xmlns="http://www.w3.org/2000/svg" width="116" height="116" viewBox="0 0 116 116"><g transform="translate(-625 -288)"><g transform="translate(-124 60)"><g transform="translate(749 228)" fill="#fff" stroke="#b2b2b2" stroke-width="1"><rect width="116" height="116" rx="7" stroke="none"/><rect x="0.5" y="0.5" width="115" height="115" rx="6.5" fill="none"/></g><line x2="115" transform="translate(749.5 245.5)" fill="none" stroke="#b2b2b2" stroke-width="1"/></g><circle cx="2" cy="2" r="2" transform="translate(646 295)" fill="#68b192"/><circle cx="2" cy="2" r="2" transform="translate(638 295)" fill="#e2b765"/><circle cx="2" cy="2" r="2" transform="translate(630 295)" fill="#ff839b"/><rect width="22" height="5" rx="2.5" transform="translate(636 316)" fill="#dedede"/><rect width="93" height="5" rx="2.5" transform="translate(637 362)" fill="#dedede"/><rect width="62" height="5" rx="2.5" transform="translate(637 371)" fill="#dedede"/><rect width="12" height="5" rx="2.5" transform="translate(636 323)" fill="#dedede"/><rect width="12" height="5" rx="2.5" transform="translate(652 323)" fill="#dedede"/><rect width="12" height="5" rx="2.5" transform="translate(694 323)" fill="#dedede"/><rect width="12" height="5" rx="2.5" transform="translate(668 323)" fill="#dedede"/><rect width="12" height="5" rx="2.5" transform="translate(710 323)" fill="#dedede"/><g transform="translate(636 384)" fill="none" stroke="#68b192" stroke-width="1"><rect width="28" height="10" rx="5" stroke="none"/><rect x="0.5" y="0.5" width="27" height="9" rx="4.5" fill="none"/></g><g transform="translate(-155.416 53.145)"><path d="M464.732,257.875s4.183-6.924,7.763-7.253,4.139,3.593,8.01,3,4.055-4.021,7.473-5.361,5.014,1.924,8.576.808,1.677-3.311,4.4-5.746" transform="translate(328.683 38.675)" fill="none" stroke="#cbcbcb" stroke-linecap="round" stroke-width="2"/><g transform="translate(827.284 276.355)" fill="#656565" stroke="#fff" stroke-width="2"><ellipse cx="4.822" cy="4.822" rx="4.822" ry="4.822" stroke="none"/><ellipse cx="4.822" cy="4.822" rx="3.822" ry="3.822" fill="none"/></g></g><g transform="translate(697 332.592)"><rect width="2" height="5" rx="1" transform="translate(28 12.408)" fill="#cbcbcb"/><rect width="2" height="17" rx="1" transform="translate(16 0.408)" fill="#cbcbcb"/><rect width="2" height="10" rx="1" transform="translate(24 7.408)" fill="#cbcbcb"/><rect width="2" height="5" rx="1" transform="translate(12 12.408)" fill="#cbcbcb"/><rect width="2" height="6" rx="1" transform="translate(4 11.408)" fill="#cbcbcb"/><rect width="2" height="15" rx="1" transform="translate(20 2.408)" fill="#cbcbcb"/><rect width="2" height="17" rx="1" transform="translate(8 0.408)" fill="#cbcbcb"/><rect width="2" height="9" rx="1" transform="translate(0 8.408)" fill="#cbcbcb"/></g></g></svg>