<svg xmlns="http://www.w3.org/2000/svg" width="16.439" height="16.439" viewBox="0 0 16.439 16.439"><path d="M565.795,749.165h-4.11a.685.685,0,0,1-.685-.685v-4.11a.685.685,0,0,1,1.37,0v2.042A9.306,9.306,0,0,1,569.22,743a8.861,8.861,0,0,1,5.965,2.256.685.685,0,0,1-.968.971,7.6,7.6,0,0,0-5-1.856c-3,0-5.157,2.11-6.213,3.425h2.788a.685.685,0,0,1,0,1.37Zm10.96,4.11h-4.11a.685.685,0,0,0,0,1.37h2.788c-1.056,1.315-3.216,3.425-6.213,3.425a7.6,7.6,0,0,1-5-1.856.685.685,0,1,0-.967.971,8.863,8.863,0,0,0,5.964,2.255,9.305,9.305,0,0,0,6.85-3.412v2.042a.685.685,0,0,0,1.37,0v-4.11a.685.685,0,0,0-.685-.685Z" transform="translate(-561 -743)" fill="#343330"/></svg>