<svg xmlns="http://www.w3.org/2000/svg" width="29.999" height="30" viewBox="0 0 29.999 30"><g transform="translate(-12644.501 -6578)"><g transform="translate(11312.501 6444.332)"><g transform="translate(1332 133.669)"><path d="M84.229,64.838a9.429,9.429,0,0,0-8.05-8.05,48.336,48.336,0,0,0-13.019,0,9.429,9.429,0,0,0-8.05,8.05,48.341,48.341,0,0,0,0,13.019,9.428,9.428,0,0,0,8.05,8.049,48.255,48.255,0,0,0,13.019,0,9.428,9.428,0,0,0,8.05-8.049A48.342,48.342,0,0,0,84.229,64.838ZM69.67,79.392a31.347,31.347,0,0,1-5.652-.516,4.069,4.069,0,0,1-3.335-4V73a1.49,1.49,0,1,1,2.98,0v1.871a1.089,1.089,0,0,0,.893,1.071,28.258,28.258,0,0,0,10.228,0,1.089,1.089,0,0,0,.893-1.071V73a1.49,1.49,0,1,1,2.98,0v1.871a4.069,4.069,0,0,1-3.336,4A31.34,31.34,0,0,1,69.67,79.392ZM73.2,68.754a1.489,1.489,0,0,1,.194,2.1l-2.575,3.1a1.491,1.491,0,0,1-2.293,0l-2.575-3.1a1.49,1.49,0,0,1,2.231-1.973V63.544a1.49,1.49,0,1,1,2.98,0v5.336A1.489,1.489,0,0,1,73.2,68.754Z" transform="translate(-54.67 -56.348)" fill="#0052cc"/><rect width="21.998" height="20.29" transform="translate(4.434 4.555)" fill="#0052cc"/></g></g><path d="M450.237,887.5v-4.428a.738.738,0,0,0-1.476,0v2.647l-4.644-4.645a.739.739,0,0,0-1.045,1.045l4.645,4.644H445.07a.738.738,0,0,0,0,1.476H449.5a.738.738,0,0,0,.738-.738Zm-10.117-8.334-4.644-4.645v2.647a.738.738,0,0,1-1.476,0v-4.428a.738.738,0,0,1,.738-.738h4.428a.738.738,0,0,1,0,1.476H436.52l4.645,4.644a.739.739,0,0,1-1.045,1.045Z" transform="translate(12217.537 5712.708)" fill="#fff" stroke="#fff" stroke-width="0.5"/></g></svg>