<svg xmlns="http://www.w3.org/2000/svg" width="18.667" height="18.667" viewBox="0 0 18.667 18.667"><g transform="translate(-338 -98)"><path d="M348.763,102.873l-3.723,1.861a4,4,0,1,0,0,5.2l3.723,1.861a4,4,0,1,0,.507-1.237l-3.541-1.771a4.012,4.012,0,0,0,0-2.9l3.541-1.771a3.984,3.984,0,1,0-.507-1.237Zm3.9,7.127A2.667,2.667,0,1,1,350,112.667,2.668,2.668,0,0,1,352.667,110ZM342,104.667a2.667,2.667,0,1,1-2.667,2.667A2.668,2.668,0,0,1,342,104.667Zm10.667-5.333A2.667,2.667,0,1,1,350,102,2.668,2.668,0,0,1,352.667,99.333Z" fill-rule="evenodd"/></g></svg>