<svg xmlns="http://www.w3.org/2000/svg" width="47" height="56" viewBox="0 0 47 56">
  <g id="sense-no-data" transform="translate(-703 -270)">
    <path id="Path_11389" data-name="Path 11389" d="M35.623,55.819H14.451a3.58,3.58,0,0,1-3.576-3.576V13.857a.708.708,0,0,1,.208-.5l7.378-7.378a.71.71,0,0,1,.5-.208h24.56a3.577,3.577,0,0,1,3.57,3.576V34.512a.711.711,0,0,1-.823.7,11.541,11.541,0,0,0-10.135,19.4.71.71,0,0,1-.512,1.2ZM12.3,14.151V52.243A2.156,2.156,0,0,0,14.451,54.4H34.086A12.962,12.962,0,0,1,45.67,33.705V9.344A2.153,2.153,0,0,0,43.523,7.19H19.258Z" transform="translate(692.125 264.232)" fill="#ffae23"/>
    <path id="Path_11390" data-name="Path 11390" d="M16.1,14.566H11.588a.711.711,0,0,1-.5-1.214L18.46,5.977a.711.711,0,0,1,1.214.5v4.513A3.577,3.577,0,0,1,16.1,14.566Zm-2.8-1.422h2.8a2.153,2.153,0,0,0,2.151-2.151V8.2Z" transform="translate(692.125 264.232)" fill="#ffae23"/>
    <path id="Path_11394" data-name="Path 11394" d="M32.851,51H21.96a.711.711,0,1,1,0-1.422H32.851a.711.711,0,0,1,0,1.422Z" transform="translate(689.127 251.575)" fill="#a7a7a7"/>
    <path id="Path_11395" data-name="Path 11395" d="M32.851,57.193H21.96a.711.711,0,0,1,0-1.422H32.851a.711.711,0,0,1,0,1.422Z" transform="translate(689.127 249.785)" fill="#a7a7a7"/>
    <path id="Path_11396" data-name="Path 11396" d="M27.954,63.391H21.96a.711.711,0,0,1,0-1.422h5.994a.711.711,0,0,1,0,1.422Z" transform="translate(689.127 247.994)" fill="#a7a7a7"/>
    <path id="Path_11401" data-name="Path 11401" d="M49.365,22.473H40.576a.711.711,0,0,1,0-1.422h8.789a.711.711,0,1,1,0,1.422Z" transform="translate(683.749 259.816)" fill="#a7a7a7"/>
    <path id="Path_11405" data-name="Path 11405" d="M49.365,22.473H40.576a.711.711,0,0,1,0-1.422h8.789a.711.711,0,1,1,0,1.422Z" transform="translate(669.114 259.816)" fill="#a7a7a7"/>
    <path id="Path_11402" data-name="Path 11402" d="M49.365,29.262H40.576a.711.711,0,0,1,0-1.422h8.789a.711.711,0,1,1,0,1.422Z" transform="translate(683.749 257.854)" fill="#a7a7a7"/>
    <path id="Path_11404" data-name="Path 11404" d="M49.365,29.262H40.576a.711.711,0,0,1,0-1.422h8.789a.711.711,0,1,1,0,1.422Z" transform="translate(669.114 257.854)" fill="#a7a7a7"/>
    <path id="Path_11403" data-name="Path 11403" d="M44.39,36.051H40.576a.711.711,0,0,1,0-1.422H44.39a.711.711,0,1,1,0,1.422Z" transform="translate(683.749 255.893)" fill="#a7a7a7"/>
    <path id="Path_11406" data-name="Path 11406" d="M44.39,36.051H40.576a.711.711,0,0,1,0-1.422H44.39a.711.711,0,1,1,0,1.422Z" transform="translate(669.114 255.893)" fill="#a7a7a7"/>
    <g id="Ellipse_2924" data-name="Ellipse 2924" transform="translate(718 294)" fill="#fcfcdf" stroke="#ffae23" stroke-width="2">
      <circle cx="16" cy="16" r="16" stroke="none"/>
      <circle cx="16" cy="16" r="15" fill="none"/>
    </g>
    <path id="Path_11489" data-name="Path 11489" d="M.237-7.405a1.021,1.021,0,0,1,.384-.789,1.413,1.413,0,0,1,.966-.337,1.19,1.19,0,0,1,.913.385,1.212,1.212,0,0,1,.357.838q0,1.126-.265,5.409t-.3,5.134A4.781,4.781,0,0,1,2.13,4.428a.552.552,0,0,1-.6.343q-.556,0-.6-.673ZM1.482,6.986a1.606,1.606,0,0,1,1.079.355,1.26,1.26,0,0,1,.417,1.016.987.987,0,0,1-.417.8,1.52,1.52,0,0,1-.973.33,1.43,1.43,0,0,1-.986-.4,1.193,1.193,0,0,1-.443-.893,1.1,1.1,0,0,1,.4-.844A1.346,1.346,0,0,1,1.482,6.986Z" transform="translate(732.257 309.487)" fill="#ffae23"/>
  </g>
</svg>
