<svg xmlns="http://www.w3.org/2000/svg" width="18.15" height="19.662" viewBox="0 0 18.15 19.662"><path d="M937.637,847.587h-6.806v-1.512h4.537a1.513,1.513,0,0,0,1.513-1.513v-3.781a1.513,1.513,0,0,0-1.513-1.512h-4.537v-1.513a.756.756,0,0,0-1.513,0v1.513h-4.537a1.513,1.513,0,0,0-1.512,1.512v3.781a1.513,1.513,0,0,0,1.512,1.513h4.537v1.512h-6.806A1.513,1.513,0,0,0,921,849.1v3.781a1.513,1.513,0,0,0,1.512,1.512h6.806v1.513a.756.756,0,0,0,1.513,0v-1.513h6.806a1.513,1.513,0,0,0,1.513-1.512V849.1a1.513,1.513,0,0,0-1.513-1.513Zm-12.856-6.806h10.587v3.781H924.781Zm12.856,12.1H922.512V849.1h15.125Z" transform="translate(-921 -837)" fill="#343330"/></svg>