<svg xmlns="http://www.w3.org/2000/svg" width="26" height="23" viewBox="0 0 26 23"><g transform="translate(-1047 -421)"><g transform="translate(1042.5 394.38)"><path d="M29.073,33H5.927A1.388,1.388,0,0,0,4.5,34.374v6.872A1.388,1.388,0,0,0,5.927,42.62H27.846A2.6,2.6,0,0,0,30.5,40.064v-5.69A1.388,1.388,0,0,0,29.073,33Zm-9.761,8.493H5.927a.3.3,0,0,1-.285-.275V34.374a.3.3,0,0,1,.285-.275H19.312Zm10.046-1.429a1.5,1.5,0,0,1-1.513,1.457H20.454V34.1h8.619a.281.281,0,0,1,.285.275v5.69Z"/><path d="M71.683,45.41a.413.413,0,0,0-.3-.11.576.576,0,0,0-.3.11L69.484,47,67.889,45.41a.413.413,0,0,0-.3-.11.576.576,0,0,0-.3.11l-.247.247a.4.4,0,0,0,0,.6l2.144,2.144a.4.4,0,0,0,.6,0l2.144-2.144a.413.413,0,0,0,.11-.3.576.576,0,0,0-.11-.3Z" transform="translate(-44.288 -8.919)"/></g><rect width="14" height="3" rx="1.5" transform="translate(1053 421)"/><rect width="14" height="3" rx="1.5" transform="translate(1053 441)"/></g></svg>