<svg xmlns="http://www.w3.org/2000/svg" width="18" height="18" viewBox="0 0 18 18"><path d="M558,1043.412a9,9,0,1,0,9,9A9,9,0,0,0,558,1043.412Zm2.454,12.475a2.858,2.858,0,0,1-1.918.877v1.273h-1.066v-1.267a2.792,2.792,0,0,1-2.589-2.43l1.648-.429a1.433,1.433,0,0,0,1.516,1.392,1.174,1.174,0,0,0,.887-.3,1.006,1.006,0,0,0,.283-.72.794.794,0,0,0-.283-.661,5.121,5.121,0,0,0-1.261-.571,7.428,7.428,0,0,1-1.373-.6,2.269,2.269,0,0,1-.8-.833,2.47,2.47,0,0,1-.309-1.25,2.772,2.772,0,0,1,.551-1.683,2.465,2.465,0,0,1,1.734-.913v-.983h1.066v.983a2.577,2.577,0,0,1,2.313,2.021l-1.468.6q-.43-1.239-1.328-1.24a.969.969,0,0,0-.724.277.92.92,0,0,0-.274.671.752.752,0,0,0,.264.617,4.526,4.526,0,0,0,1.127.532,10.013,10.013,0,0,1,1.489.655,2.338,2.338,0,0,1,.862.852,2.449,2.449,0,0,1,.322,1.27A2.686,2.686,0,0,1,560.459,1055.887Z" transform="translate(-549.005 -1043.412)" fill="#fb8500" fill-rule="evenodd"/></svg>