<svg xmlns="http://www.w3.org/2000/svg" width="11.24" height="18" viewBox="0 0 11.24 18"><path d="M216.831,71.346l1.314-6.26h-4.128l5.771-9.1-1.314,6.258h4.136Z" transform="translate(-212.693 -54.668)" fill="#fb8500"/><g transform="translate(0 0)"><path d="M162.99,17.256l.432-2,.732-3.392.238-1.1a1.071,1.071,0,0,0-.1-.795,1.039,1.039,0,0,0-.89-.511H158.99l.89,1.552.749-1.147L162.367,7.2l1.964-3.009L165.759,2l.283-.434L164.158.77l-.432,2-.732,3.391-.238,1.1a1.071,1.071,0,0,0,.1.795,1.039,1.039,0,0,0,.89.511h4.416l-.89-1.552-.749,1.147-1.74,2.662-1.967,3.01-1.431,2.189-.284.434a1.031,1.031,0,0,0,1.165,1.515,1.068,1.068,0,0,0,.616-.474l.749-1.147,1.74-2.662,1.967-3.01,1.431-2.189.284-.434a1.026,1.026,0,0,0,0-1.041,1.039,1.039,0,0,0-.89-.511h-4.416l.994,1.305.432-2,.732-3.391.238-1.1A1.032,1.032,0,0,0,164.878.05a1.068,1.068,0,0,0-.616.474l-.748,1.147-1.737,2.662-1.964,3.009-1.429,2.189-.283.434a1.026,1.026,0,0,0,0,1.041,1.039,1.039,0,0,0,.89.511H163.4l-.994-1.305-.432,2L161.24,15.6l-.238,1.1a1.071,1.071,0,0,0,.1.795,1.031,1.031,0,0,0,1.885-.246Z" transform="translate(-157.958 -0.013)" fill="#fb8500"/></g></svg>