<svg xmlns="http://www.w3.org/2000/svg" width="22.112" height="22.113" viewBox="0 0 22.112 22.113">
  <g id="vr-chat-icon" transform="translate(-1229.502 -697.499)">
    <path id="Path_11497" data-name="Path 11497" d="M26.352,10.257a66.6,66.6,0,0,0-11.586,0,5.034,5.034,0,0,0-4.551,4.438,33.763,33.763,0,0,0,0,7.532,5.034,5.034,0,0,0,4.551,4.438c1.283.112,2.6.188,3.926.225l1.622,4.06a.264.264,0,0,0,.49,0l1.622-4.06c1.323-.037,2.643-.113,3.926-.225A5.034,5.034,0,0,0,30.9,22.227a33.763,33.763,0,0,0,0-7.532A5.034,5.034,0,0,0,26.352,10.257Zm4.027,11.911a4.505,4.505,0,0,1-4.073,3.971c-1.329.116-2.7.193-4.068.228a.264.264,0,0,0-.238.166L20.559,30.14l-1.441-3.608a.264.264,0,0,0-.238-.166c-1.37-.035-2.739-.112-4.068-.228a4.505,4.505,0,0,1-4.073-3.971,33.236,33.236,0,0,1,0-7.414,4.505,4.505,0,0,1,4.073-3.971c1.907-.167,3.827-.251,5.747-.251s3.84.083,5.747.251a4.505,4.505,0,0,1,4.073,3.971A33.235,33.235,0,0,1,30.379,22.168Z" transform="translate(1220 687.996)" fill="#0e96fa" stroke="#0e96fa" stroke-width="1"/>
    <path id="Path_11498" data-name="Path 11498" d="M38.045,33.828H29.173c-.122,0-.221.139-.221.311s.1.311.221.311h8.872c.122,0,.221-.139.221-.311S38.168,33.828,38.045,33.828Z" transform="translate(1206.95 670.43)" fill="none" stroke="#0052cc" stroke-width="1"/>
    <path id="Path_11499" data-name="Path 11499" d="M38.045,47.358H29.173c-.122,0-.221.139-.221.311s.1.311.221.311h8.872c.122,0,.221-.139.221-.311S38.168,47.358,38.045,47.358Z" transform="translate(1206.95 660.454)" fill="none" stroke="#0052cc" stroke-width="1"/>
  </g>
</svg>
