<svg xmlns="http://www.w3.org/2000/svg" width="24.063" height="18.549" viewBox="0 0 24.063 18.549"><g transform="translate(0 0)"><path d="M30.844,36.8a4.355,4.355,0,0,0-8.535-1.228,5.776,5.776,0,0,0-7.972,4.053,3.731,3.731,0,0,0,.08,7.462H25.558a3.728,3.728,0,0,0,2.695-6.309A4.359,4.359,0,0,0,30.844,36.8Zm-5.285,9.063H14.416a2.508,2.508,0,0,1-.217-5.006s0,.009,0,.014v.892a.612.612,0,0,0,1.224,0v-.893a4.565,4.565,0,1,1,9.129,0v.258h0c0,.008,0,.015,0,.023v.612a.612.612,0,0,0,1.224,0v-.892s0-.009,0-.014a2.508,2.508,0,0,1-.217,5.007ZM26.952,39.9a3.71,3.71,0,0,0-1.314-.273A5.8,5.8,0,0,0,23.4,36.211a3.136,3.136,0,1,1,3.547,3.69Z" transform="translate(-10.683 -28.54)"/><path d="M60.926,22.7a.612.612,0,0,0,.612-.612V20.3a.612.612,0,0,0-1.224,0v1.785A.612.612,0,0,0,60.926,22.7Z" transform="translate(-45.126 -19.692)"/><path d="M81.879,44.692H80.094a.612.612,0,0,0,0,1.224h1.785a.612.612,0,0,0,0-1.224Z" transform="translate(-58.428 -37.042)"/><path d="M74.912,29.322l1.262-1.262a.612.612,0,0,0-.865-.865l-1.262,1.262a.612.612,0,0,0,.865.866Z" transform="translate(-54.532 -24.774)"/><path d="M74.914,58.426a.612.612,0,0,0-.866.865l1.262,1.262a.612.612,0,1,0,.865-.865Z" transform="translate(-54.533 -46.448)"/><path d="M44.079,29.322a.612.612,0,0,0,.865-.866l-1.262-1.262a.612.612,0,1,0-.865.865Z" transform="translate(-32.859 -24.774)"/></g></svg>