<svg xmlns="http://www.w3.org/2000/svg" width="19" height="19" viewBox="0 0 19 19"><path d="M3234.48,1486.88v7.6a1.531,1.531,0,0,1-1.52,1.52h-14.44a1.531,1.531,0,0,1-1.52-1.52v-14.44a1.531,1.531,0,0,1,1.52-1.52h7.6a.76.76,0,1,1,0,1.52h-7.6v14.44h14.44v-7.6a.76.76,0,1,1,1.52,0Zm1.52-6.46a3.425,3.425,0,1,1-1-2.417A3.387,3.387,0,0,1,3236,1480.42Zm-1.52,0a1.9,1.9,0,0,0-1.17-1.756,1.9,1.9,0,0,0-2.485,2.485,1.9,1.9,0,0,0,1.756,1.17,1.894,1.894,0,0,0,1.9-1.9Z" transform="translate(-3217 -1477)" fill="#343330"/></svg>