<svg xmlns="http://www.w3.org/2000/svg" xmlns:xlink="http://www.w3.org/1999/xlink" width="162.471" height="40" viewBox="0 0 162.471 40"><defs><clipPath id="a"><rect width="17.334" height="17.688" fill="none"/></clipPath><clipPath id="b"><path d="M48.348-92.53l-9.287,9.289a3.673,3.673,0,0,0-1.077,2.465h0v.282a3.665,3.665,0,0,0,1.077,2.463h0a3.687,3.687,0,0,0,5.213,0h0l9.287-9.286a3.675,3.675,0,0,0,1.079-2.605h0A3.685,3.685,0,0,0,53.56-92.53h0a3.675,3.675,0,0,0-2.605-1.077h0a3.684,3.684,0,0,0-2.608,1.077" transform="translate(-37.984 93.607)" fill="none"/></clipPath><linearGradient id="c" x1="0.005" y1="0.753" x2="0.236" y2="0.753" gradientUnits="objectBoundingBox"><stop offset="0" stop-color="#0090d4"/><stop offset="0.1" stop-color="#0a9bdb"/><stop offset="0.2" stop-color="#16a8e2"/><stop offset="0.3" stop-color="#20b4e2"/><stop offset="0.4" stop-color="#27bdd7"/><stop offset="0.5" stop-color="#34bfcb"/><stop offset="0.6" stop-color="#42bfbe"/><stop offset="0.7" stop-color="#4fc0b2"/><stop offset="0.8" stop-color="#5bc1a6"/><stop offset="0.9" stop-color="#61c19d"/><stop offset="1" stop-color="#67c193"/></linearGradient><clipPath id="d"><rect width="17.688" height="17.34" fill="none"/></clipPath><clipPath id="e"><path d="M6.538-179.125a3.668,3.668,0,0,0-2.46,1.077h0a3.683,3.683,0,0,0,0,5.21h0l9.287,9.286a3.663,3.663,0,0,0,2.6,1.082h0a3.657,3.657,0,0,0,2.6-1.082h0a3.686,3.686,0,0,0,0-5.21h0l-9.285-9.286a3.679,3.679,0,0,0-2.463-1.077H6.538Z" transform="translate(-2.999 179.125)" fill="none"/></clipPath><linearGradient id="f" x1="0.006" y1="0.367" x2="0.236" y2="0.367" xlink:href="#c"/><clipPath id="g"><rect width="17.758" height="21.105" fill="none"/></clipPath><clipPath id="h"><path d="M13.365-145.878l-9.287,9.286a3.687,3.687,0,0,0,0,5.213h0A3.655,3.655,0,0,0,6.683-130.3h0a3.666,3.666,0,0,0,2.606-1.079h0l9.285-9.289a3.685,3.685,0,0,0,0-5.21h0l-5.21-5.216a3.686,3.686,0,0,1,0,5.216" transform="translate(-2.999 151.094)" fill="none"/></clipPath><linearGradient id="i" x1="0.006" y1="0.546" x2="0.236" y2="0.546" xlink:href="#c"/><clipPath id="j"><rect width="17.688" height="17.334" fill="none"/></clipPath><clipPath id="k"><path d="M124.593-127.5a3.67,3.67,0,0,0-1.078,2.49h0v.229a3.671,3.671,0,0,0,1.078,2.491h0L133.88-113a3.684,3.684,0,0,0,5.21,0h0a3.676,3.676,0,0,0,1.08-2.49h0v-.236a3.666,3.666,0,0,0-1.08-2.487h0l-9.284-9.286a3.678,3.678,0,0,0-2.608-1.077h0a3.666,3.666,0,0,0-2.605,1.077" transform="translate(-123.515 128.572)" fill="none"/></clipPath><linearGradient id="l" x1="0.005" y1="0.605" x2="0.236" y2="0.605" xlink:href="#c"/><clipPath id="m"><rect width="17.754" height="21.11" fill="none"/></clipPath><clipPath id="n"><path d="M133.88-178.048l-9.287,9.286a3.674,3.674,0,0,0-1.078,2.492h0v.229a3.664,3.664,0,0,0,1.078,2.489h0l5.208,5.216a3.688,3.688,0,0,1,0-5.21h0l0-.006,9.284-9.286a3.66,3.66,0,0,0,1.08-2.486h0v-.236a3.669,3.669,0,0,0-1.08-2.488h0a3.667,3.667,0,0,0-2.6-1.077h0a3.67,3.67,0,0,0-2.608,1.077" transform="translate(-123.515 179.125)" fill="none"/></clipPath><linearGradient id="o" x1="0.005" y1="0.427" x2="0.236" y2="0.427" xlink:href="#c"/><clipPath id="p"><rect width="17.337" height="17.688" fill="none"/></clipPath><clipPath id="q"><path d="M101.37-214.11a3.676,3.676,0,0,0-2.476,1.079h0l-9.285,9.283a3.676,3.676,0,0,0-1.081,2.608h0a3.671,3.671,0,0,0,1.081,2.608h0a3.674,3.674,0,0,0,2.539,1.077h.131a3.67,3.67,0,0,0,2.538-1.077h0l9.289-9.291a3.68,3.68,0,0,0,0-5.207h0a3.665,3.665,0,0,0-2.473-1.079h-.264Z" transform="translate(-88.529 214.11)" fill="none"/></clipPath><linearGradient id="r" x1="0.005" y1="0.22" x2="0.236" y2="0.22" xlink:href="#c"/><clipPath id="s"><rect width="21.107" height="17.76" fill="none"/></clipPath><clipPath id="t"><path d="M41.536-214.11a3.673,3.673,0,0,0-2.475,1.079h0a3.656,3.656,0,0,0-1.077,2.6h0a3.651,3.651,0,0,0,1.077,2.6h0l9.287,9.291a3.684,3.684,0,0,0,2.542,1.077h.131a3.674,3.674,0,0,0,2.54-1.077h0l5.213-5.21a3.682,3.682,0,0,1-5.21,0h0l0-.006-9.287-9.283A3.669,3.669,0,0,0,41.8-214.11h-.264Z" transform="translate(-37.984 214.11)" fill="none"/></clipPath><linearGradient id="u" x1="0.005" y1="0.218" x2="0.236" y2="0.218" xlink:href="#c"/><clipPath id="v"><rect width="21.108" height="17.754" fill="none"/></clipPath><clipPath id="w"><path d="M71.253-92.53l-5.214,5.213a3.686,3.686,0,0,1,5.213,0h0l9.285,9.286a3.687,3.687,0,0,0,5.213,0h0a3.673,3.673,0,0,0,1.079-2.605h0a3.676,3.676,0,0,0-1.079-2.605h0L76.462-92.53a3.67,3.67,0,0,0-2.6-1.077h0a3.674,3.674,0,0,0-2.6,1.077" transform="translate(-66.039 93.607)" fill="none"/></clipPath><linearGradient id="x" x1="0.006" y1="0.754" x2="0.236" y2="0.754" xlink:href="#c"/></defs><g transform="translate(-180.458 -144.891)"><g transform="translate(221.9 157.323)"><path d="M-6.876,0H.565L3.531,3.414,6.495,0h7.572L7.237,7.57l8.248,8.958h-7.7l-4.253-4.9-4.253,4.9h-7.7L-.178,7.57Z" transform="translate(8.424)" fill="#475764"/></g><g transform="translate(244.527 156.561)"><path d="M-56.669-28.465a3.3,3.3,0,0,0-3.319-2.608,3.3,3.3,0,0,0-3.48,2.608Zm5.446,3.385H-63.565c0,2.383,1.256,3.673,3.673,3.673a2.931,2.931,0,0,0,2.8-1.514h5.639c-.934,3.9-4.64,5.671-8.411,5.671-5.48,0-9.571-3.091-9.571-8.8,0-5.509,3.771-8.828,9.153-8.828,5.734,0,9.054,3.543,9.054,9.185Z" transform="translate(69.431 34.875)" fill="#475764"/></g><g transform="translate(186.921 167.168)" style="mix-blend-mode:multiply;isolation:isolate"><g clip-path="url(#a)"><g transform="translate(0.52 0.518)" clip-path="url(#b)"><g transform="matrix(1, -0.009, 0.009, 1, -7.346, -22.698)"><path d="M.364,0l161.6,1.476-.364,39.9L0,39.9Z" transform="translate(0 0)" fill="url(#c)"/></g></g></g></g><g transform="translate(264.705 156.56)"><path d="M-26.023-11.592h.066A6.128,6.128,0,0,1-20.735-14.2,6.051,6.051,0,0,1-15.1-11.045,6.316,6.316,0,0,1-9.489-14.2c4.185,0,5.641,2.737,5.641,6.543V2.875H-9.714V-5.018c0-1.709.06-4.513-2.418-4.513-2.706,0-2.8,2.545-2.8,4.513V2.875H-20.8V-5.018c0-1.839,0-4.64-2.608-4.64s-2.614,2.8-2.614,4.64V2.875h-5.86V-13.653h5.86Z" transform="translate(31.883 14.203)" fill="#475764"/></g><g transform="translate(323.656 156.561)"><path d="M-26.918-39.2a3.533,3.533,0,0,0,3.765,3.708A3.534,3.534,0,0,0-19.382-39.2a3.59,3.59,0,0,0-3.771-3.736A3.59,3.59,0,0,0-26.918-39.2m13.212,8.25h-5.866v-1.836h-.063a5.822,5.822,0,0,1-5,2.383c-4.9,0-8.347-4.09-8.347-8.831s3.385-8.793,8.281-8.793a6.729,6.729,0,0,1,5.126,2.162v-1.612h5.866Z" transform="translate(32.98 48.029)" fill="#475764"/></g><path d="M738.312-178.581h-5.866v-26.743h5.866Z" transform="translate(-416.453 352.185)" fill="#475764"/><g transform="translate(294.92 156.606)"><path d="M-25.18-39.2a3.538,3.538,0,0,0,3.774,3.708A3.534,3.534,0,0,0-17.639-39.2a3.591,3.591,0,0,0-3.768-3.736A3.594,3.594,0,0,0-25.18-39.2m.2-6.413h.063a5.882,5.882,0,0,1,5-2.415c4.928,0,8.342,4.125,8.342,8.863,0,4.766-3.379,8.762-8.279,8.762a6.759,6.759,0,0,1-5.123-2.124V-22.7H-30.85V-47.479h5.866Z" transform="translate(30.85 48.029)" fill="#475764"/></g><g transform="translate(180.495 151.381)" style="mix-blend-mode:multiply;isolation:isolate"><g clip-path="url(#d)"><g transform="translate(0.515 0.524)" clip-path="url(#e)"><g transform="matrix(1, -0.009, 0.009, 1, -0.916, -6.979)"><path d="M.364,0l161.6,1.476-.364,39.9L0,39.9Z" transform="translate(0 0)" fill="url(#f)"/></g></g></g></g><g transform="translate(180.459 156.927)" style="mix-blend-mode:multiply;isolation:isolate"><g clip-path="url(#g)"><g transform="translate(0.551 0.155)" clip-path="url(#h)"><g transform="matrix(1, -0.009, 0.009, 1, -0.916, -12.132)"><path d="M.364,0l161.6,1.476-.364,39.9L0,39.9Z" transform="translate(0 0)" fill="url(#i)"/></g></g></g></g><g transform="translate(202.695 161.066)" style="mix-blend-mode:multiply;isolation:isolate"><g clip-path="url(#j)"><g transform="translate(0.518 0.162)" clip-path="url(#k)"><g transform="matrix(1, -0.009, 0.009, 1, -23.067, -16.271)"><path d="M.364,0l161.6,1.476-.364,39.9L0,39.9Z" transform="translate(0 0)" fill="url(#l)"/></g></g></g></g><g transform="translate(202.663 151.75)" style="mix-blend-mode:multiply;isolation:isolate"><g clip-path="url(#m)"><g transform="translate(0.55 0.161)" clip-path="url(#n)"><g transform="matrix(1, -0.009, 0.009, 1, -23.067, -6.979)"><path d="M.364,0l161.6,1.476-.364,39.9L0,39.9Z" transform="translate(0 0)" fill="url(#o)"/></g></g></g></g><g transform="translate(196.569 144.928)" style="mix-blend-mode:multiply;isolation:isolate"><g clip-path="url(#p)"><g transform="translate(0.161 0.515)" clip-path="url(#q)"><g transform="matrix(1, -0.009, 0.009, 1, -16.636, -0.549)"><path d="M.364,0l161.6,1.476-.364,39.9L0,39.9Z" transform="translate(0 0)" fill="url(#r)"/></g></g></g></g><g transform="translate(187.28 144.891)" style="mix-blend-mode:multiply;isolation:isolate"><g clip-path="url(#s)"><g transform="translate(0.16 0.553)" clip-path="url(#t)"><g transform="matrix(1, -0.009, 0.009, 1, -7.346, -0.549)"><path d="M.364,0l161.6,1.476-.364,39.9L0,39.9Z" transform="translate(0 0)" fill="url(#u)"/></g></g></g></g><g transform="translate(192.439 167.137)" style="mix-blend-mode:multiply;isolation:isolate"><g clip-path="url(#v)"><g transform="translate(0.158 0.549)" clip-path="url(#w)"><g transform="matrix(1, -0.009, 0.009, 1, -12.502, -22.698)"><path d="M.364,0l161.6,1.476-.364,39.9L0,39.9Z" transform="translate(0 0)" fill="url(#x)"/></g></g></g></g></g></svg>