<?xml version="1.0" encoding="utf-8"?>
<!-- Generator: Adobe Illustrator 16.0.0, SVG Export Plug-In . SVG Version: 6.00 Build 0)  -->
<!DOCTYPE svg PUBLIC "-//W3C//DTD SVG 1.1//EN" "http://www.w3.org/Graphics/SVG/1.1/DTD/svg11.dtd">
<svg version="1.1" id="Layer_1" xmlns="http://www.w3.org/2000/svg" xmlns:xlink="http://www.w3.org/1999/xlink" x="0px" y="0px"
     width="676.667px" height="166px" viewBox="0 0 676.667 166" enable-background="new 0 0 676.667 166" xml:space="preserve">
<g>
    <defs>
        <rect id="SVGID_1_" x="-78" y="-198.281" width="841.89" height="595.281"/>
    </defs>
    <clipPath id="SVGID_2_">
        <use xlink:href="#SVGID_1_"  overflow="visible"/>
    </clipPath>
    <polygon clip-path="url(#SVGID_2_)" fill="#495965" points="179.36,51.725 210.396,51.725 222.756,65.966 235.117,51.725 
        266.69,51.725 238.207,83.298 272.602,120.648 240.491,120.648 222.756,100.227 205.022,120.648 172.911,120.648 207.306,83.298     
        "/>
    <g clip-path="url(#SVGID_2_)">
        <defs>
            <rect id="SVGID_3_" x="-78" y="-198.281" width="841.89" height="595.281"/>
        </defs>
        <clipPath id="SVGID_4_">
            <use xlink:href="#SVGID_3_"  overflow="visible"/>
        </clipPath>
        <path clip-path="url(#SVGID_4_)" fill="#495965" d="M340.327,90.284H288.87c0,9.942,5.24,15.316,15.316,15.316
            c5.24,0,9.002-1.746,11.689-6.314h23.512c-3.896,16.257-19.347,23.646-35.067,23.646c-22.84,0-39.903-12.898-39.903-36.678
            c0-22.975,15.72-36.813,38.157-36.813c23.915,0,37.753,14.778,37.753,38.291V90.284z M317.622,76.177
            c-1.21-6.583-7.256-10.882-13.839-10.882c-7.12,0-13.032,3.761-14.51,10.882H317.622z"/>
        <path clip-path="url(#SVGID_4_)" fill="#495965" d="M372.746,60.324h0.269c5.777-7.658,12.898-10.883,21.766-10.883
            c9.941,0,18.541,4.031,23.512,13.167c4.702-8.599,13.973-13.167,23.377-13.167c17.467,0,23.513,11.42,23.513,27.274v43.934
            h-24.453V87.732c0-7.121,0.27-18.809-10.076-18.809c-11.285,0-11.688,10.613-11.688,18.809v32.917h-24.452V87.732
            c0-7.658,0-19.347-10.883-19.347s-10.883,11.689-10.883,19.347v32.917h-24.452V51.725h24.452V60.324z"/>
        <path clip-path="url(#SVGID_4_)" fill="#495965" d="M498.513,59.518h0.27c4.434-6.852,12.764-10.077,20.823-10.077
            c20.558,0,34.799,17.197,34.799,36.947c0,19.885-14.107,36.545-34.529,36.545c-7.927,0-16.122-2.821-21.362-8.866v40.977h-24.452
            V51.725h24.452V59.518z M497.707,86.254c0,8.733,5.777,15.45,15.72,15.45c9.941,0,15.718-6.717,15.718-15.45
            c0-8.464-5.776-15.585-15.718-15.585C503.484,70.669,497.707,77.79,497.707,86.254"/>
        <rect x="561.895" y="9.134" clip-path="url(#SVGID_4_)" fill="#495965" width="24.452" height="111.515"/>
        <path clip-path="url(#SVGID_4_)" fill="#495965" d="M674.376,120.648h-24.452v-7.658h-0.269c-4.3,6.853-12.764,9.942-20.825,9.942
            c-20.422,0-34.798-17.063-34.798-36.813c0-19.75,14.107-36.679,34.53-36.679c7.926,0,16.256,2.956,21.361,9.002v-6.718h24.452
            V120.648z M619.291,86.254c0,8.733,5.777,15.45,15.72,15.45c9.941,0,15.718-6.717,15.718-15.45
            c0-8.464-5.776-15.585-15.718-15.585C625.068,70.669,619.291,77.79,619.291,86.254"/>
        <g clip-path="url(#SVGID_4_)">
            <g>
                <defs>
                    <rect id="SVGID_5_" x="2.848" y="29.206" width="69.454" height="69.455"/>
                </defs>
                <clipPath id="SVGID_6_">
                    <use xlink:href="#SVGID_5_"  overflow="visible"/>
                </clipPath>
                <g clip-path="url(#SVGID_6_)">
                    <defs>
                        <path id="SVGID_7_" d="M56.937,98.661c-3.932,0-7.864-1.5-10.864-4.501L7.348,55.435c-6-6-6-15.729,0-21.729
                            s15.728-6,21.729,0l38.725,38.725c6,6.001,6,15.729,0,21.729C64.802,97.161,60.87,98.661,56.937,98.661"/>
                    </defs>
                    <clipPath id="SVGID_8_">
                        <use xlink:href="#SVGID_7_"  overflow="visible"/>
                    </clipPath>
                    
                        <linearGradient id="SVGID_9_" gradientUnits="userSpaceOnUse" x1="-78" y1="397.0049" x2="-77" y2="397.0049" gradientTransform="matrix(155.5846 -1.4209 -1.4209 -155.5846 12703.0576 61720.5117)">
                        <stop  offset="0" style="stop-color:#0091D6"/>
                        <stop  offset="0.0133" style="stop-color:#0091D6"/>
                        <stop  offset="0.2613" style="stop-color:#1EB2E8"/>
                        <stop  offset="0.4209" style="stop-color:#29C0D6"/>
                        <stop  offset="0.6244" style="stop-color:#46C1BD"/>
                        <stop  offset="0.7893" style="stop-color:#5BC2A8"/>
                        <stop  offset="1" style="stop-color:#68C295"/>
                    </linearGradient>
                    <polygon clip-path="url(#SVGID_8_)" fill="url(#SVGID_9_)" points="0.7,27.712 73.796,27.044 74.45,98.655 1.354,99.323                    
                        "/>
                </g>
            </g>
        </g>
        <g clip-path="url(#SVGID_4_)">
            <g>
                <defs>
                    <rect id="SVGID_10_" x="2.848" y="50.711" width="69.454" height="86.691"/>
                </defs>
                <clipPath id="SVGID_11_">
                    <use xlink:href="#SVGID_10_"  overflow="visible"/>
                </clipPath>
                <g clip-path="url(#SVGID_11_)">
                    <defs>
                        <path id="SVGID_12_" d="M46.073,72.448L7.348,111.173c-6,6.001-6,15.729,0,21.729c3,3,6.932,4.5,10.864,4.5
                            c3.933,0,7.865-1.5,10.865-4.5l38.725-38.726c6-6.001,6-15.729,0-21.729l-21.72-21.737c6,6,6,15.729,0,21.729L46.073,72.448z"
                            />
                    </defs>
                    <clipPath id="SVGID_13_">
                        <use xlink:href="#SVGID_12_"  overflow="visible"/>
                    </clipPath>
                    
                        <linearGradient id="SVGID_14_" gradientUnits="userSpaceOnUse" x1="-78" y1="397" x2="-77" y2="397" gradientTransform="matrix(155.5846 -1.4209 -1.4209 -155.5846 12703.3076 61750.6367)">
                        <stop  offset="0" style="stop-color:#0091D6"/>
                        <stop  offset="0.0133" style="stop-color:#0091D6"/>
                        <stop  offset="0.2613" style="stop-color:#1EB2E8"/>
                        <stop  offset="0.4209" style="stop-color:#29C0D6"/>
                        <stop  offset="0.6244" style="stop-color:#46C1BD"/>
                        <stop  offset="0.7893" style="stop-color:#5BC2A8"/>
                        <stop  offset="1" style="stop-color:#68C295"/>
                    </linearGradient>
                    <polygon clip-path="url(#SVGID_13_)" fill="url(#SVGID_14_)" points="0.556,50.718 73.796,50.049 74.594,137.395 
                        1.354,138.063                   "/>
                </g>
            </g>
        </g>
        <g clip-path="url(#SVGID_4_)">
            <g>
                <defs>
                    <rect id="SVGID_15_" x="95.204" y="67.948" width="69.454" height="69.454"/>
                </defs>
                <clipPath id="SVGID_16_">
                    <use xlink:href="#SVGID_15_"  overflow="visible"/>
                </clipPath>
                <g clip-path="url(#SVGID_16_)">
                    <defs>
                        <path id="SVGID_17_" d="M110.568,67.948c3.932,0,7.865,1.5,10.865,4.5l38.725,38.725c6.001,6.001,6.001,15.729,0,21.729
                            c-6,6-15.728,6-21.729,0L99.704,94.177c-6-6.001-6-15.729,0-21.729C102.704,69.448,106.636,67.948,110.568,67.948"/>
                    </defs>
                    <clipPath id="SVGID_18_">
                        <use xlink:href="#SVGID_17_"  overflow="visible"/>
                    </clipPath>
                    
                        <linearGradient id="SVGID_19_" gradientUnits="userSpaceOnUse" x1="-78" y1="396.9961" x2="-77" y2="396.9961" gradientTransform="matrix(155.5846 -1.4209 -1.4209 -155.5846 12703.4326 61760.1367)">
                        <stop  offset="0" style="stop-color:#0091D6"/>
                        <stop  offset="0.0133" style="stop-color:#0091D6"/>
                        <stop  offset="0.2613" style="stop-color:#1EB2E8"/>
                        <stop  offset="0.4209" style="stop-color:#29C0D6"/>
                        <stop  offset="0.6244" style="stop-color:#46C1BD"/>
                        <stop  offset="0.7893" style="stop-color:#5BC2A8"/>
                        <stop  offset="1" style="stop-color:#68C295"/>
                    </linearGradient>
                    <polygon clip-path="url(#SVGID_18_)" fill="url(#SVGID_19_)" points="93.056,67.954 166.153,67.287 166.807,138.896 
                        93.71,139.563                   "/>
                </g>
            </g>
        </g>
        <g clip-path="url(#SVGID_4_)">
            <g>
                <defs>
                    <rect id="SVGID_20_" x="95.204" y="29.206" width="69.454" height="86.691"/>
                </defs>
                <clipPath id="SVGID_21_">
                    <use xlink:href="#SVGID_20_"  overflow="visible"/>
                </clipPath>
                <g clip-path="url(#SVGID_21_)">
                    <defs>
                        <path id="SVGID_22_" d="M121.433,94.16l38.725-38.725c6.001-6,6.001-15.729,0-21.729c-3-3-6.932-4.5-10.864-4.5
                            c-3.933,0-7.864,1.5-10.865,4.5L99.704,72.431c-6,6.001-6,15.729,0,21.729l21.72,21.737c-6-6.001-6-15.729,0-21.729
                            L121.433,94.16z"/>
                    </defs>
                    <clipPath id="SVGID_23_">
                        <use xlink:href="#SVGID_22_"  overflow="visible"/>
                    </clipPath>
                    
                        <linearGradient id="SVGID_24_" gradientUnits="userSpaceOnUse" x1="-78" y1="397" x2="-77" y2="397" gradientTransform="matrix(155.5846 -1.4209 -1.4209 -155.5846 12703.0576 61730.0117)">
                        <stop  offset="0" style="stop-color:#0091D6"/>
                        <stop  offset="0.0133" style="stop-color:#0091D6"/>
                        <stop  offset="0.2613" style="stop-color:#1EB2E8"/>
                        <stop  offset="0.4209" style="stop-color:#29C0D6"/>
                        <stop  offset="0.6244" style="stop-color:#46C1BD"/>
                        <stop  offset="0.7893" style="stop-color:#5BC2A8"/>
                        <stop  offset="1" style="stop-color:#68C295"/>
                    </linearGradient>
                    <polygon clip-path="url(#SVGID_23_)" fill="url(#SVGID_24_)" points="92.912,29.213 166.153,28.544 166.951,115.89 
                        93.71,116.559                   "/>
                </g>
            </g>
        </g>
        <g clip-path="url(#SVGID_4_)">
            <g>
                <defs>
                    <rect id="SVGID_25_" x="68.397" y="2.399" width="69.454" height="69.454"/>
                </defs>
                <clipPath id="SVGID_26_">
                    <use xlink:href="#SVGID_25_"  overflow="visible"/>
                </clipPath>
                <g clip-path="url(#SVGID_26_)">
                    <defs>
                        <path id="SVGID_27_" d="M68.396,56.489c0-3.933,1.5-7.864,4.501-10.865l38.725-38.725c6.001-6.001,15.729-6.001,21.729,0
                            c6.001,6,6.001,15.728,0,21.729L94.625,67.353c-6,6.001-15.728,6.001-21.728,0C69.896,64.353,68.396,60.421,68.396,56.489"/>
                    </defs>
                    <clipPath id="SVGID_28_">
                        <use xlink:href="#SVGID_27_"  overflow="visible"/>
                    </clipPath>
                    
                        <linearGradient id="SVGID_29_" gradientUnits="userSpaceOnUse" x1="-78" y1="397" x2="-77" y2="397" gradientTransform="matrix(155.5846 -1.4209 -1.4209 -155.5846 12702.8076 61694.2617)">
                        <stop  offset="0" style="stop-color:#0091D6"/>
                        <stop  offset="0.0133" style="stop-color:#0091D6"/>
                        <stop  offset="0.2613" style="stop-color:#1EB2E8"/>
                        <stop  offset="0.4209" style="stop-color:#29C0D6"/>
                        <stop  offset="0.6244" style="stop-color:#46C1BD"/>
                        <stop  offset="0.7893" style="stop-color:#5BC2A8"/>
                        <stop  offset="1" style="stop-color:#68C295"/>
                    </linearGradient>
                    <polygon clip-path="url(#SVGID_28_)" fill="url(#SVGID_29_)" points="67.734,0.904 139.346,0.25 140.014,73.348 68.402,74.002 
                                            "/>
                </g>
            </g>
        </g>
        <g clip-path="url(#SVGID_4_)">
            <g>
                <defs>
                    <rect id="SVGID_30_" x="29.655" y="2.399" width="86.691" height="69.454"/>
                </defs>
                <clipPath id="SVGID_31_">
                    <use xlink:href="#SVGID_30_"  overflow="visible"/>
                </clipPath>
                <g clip-path="url(#SVGID_31_)">
                    <defs>
                        <path id="SVGID_32_" d="M94.609,45.624L55.884,6.899c-6.001-6.001-15.729-6.001-21.729,0c-3,3-4.5,6.932-4.5,10.864
                            c0,3.933,1.5,7.864,4.5,10.865L72.88,67.353c6.001,6.001,15.729,6.001,21.729,0l21.737-21.72c-6,6-15.729,6-21.729,0
                            L94.609,45.624z"/>
                    </defs>
                    <clipPath id="SVGID_33_">
                        <use xlink:href="#SVGID_32_"  overflow="visible"/>
                    </clipPath>
                    
                        <linearGradient id="SVGID_34_" gradientUnits="userSpaceOnUse" x1="-78" y1="396.999" x2="-77" y2="396.999" gradientTransform="matrix(155.5846 -1.4209 -1.4209 -155.5846 12702.8076 61693.8867)">
                        <stop  offset="0" style="stop-color:#0091D6"/>
                        <stop  offset="0.0133" style="stop-color:#0091D6"/>
                        <stop  offset="0.2613" style="stop-color:#1EB2E8"/>
                        <stop  offset="0.4209" style="stop-color:#29C0D6"/>
                        <stop  offset="0.6244" style="stop-color:#46C1BD"/>
                        <stop  offset="0.7893" style="stop-color:#5BC2A8"/>
                        <stop  offset="1" style="stop-color:#68C295"/>
                    </linearGradient>
                    <polygon clip-path="url(#SVGID_33_)" fill="url(#SVGID_34_)" points="28.993,0.904 116.339,0.106 117.008,73.348 
                        29.662,74.146                   "/>
                </g>
            </g>
        </g>
        <g clip-path="url(#SVGID_4_)">
            <g>
                <defs>
                    <rect id="SVGID_35_" x="29.655" y="94.755" width="69.454" height="69.455"/>
                </defs>
                <clipPath id="SVGID_36_">
                    <use xlink:href="#SVGID_35_"  overflow="visible"/>
                </clipPath>
                <g clip-path="url(#SVGID_36_)">
                    <defs>
                        <path id="SVGID_37_" d="M99.109,110.119c0,3.933-1.5,7.864-4.5,10.865l-38.725,38.725c-6.001,6.001-15.729,6.001-21.729,0
                            c-6-6-6-15.729,0-21.729L72.88,99.255c6.001-6,15.729-6,21.729,0C97.609,102.255,99.109,106.188,99.109,110.119"/>
                    </defs>
                    <clipPath id="SVGID_38_">
                        <use xlink:href="#SVGID_37_"  overflow="visible"/>
                    </clipPath>
                    
                        <linearGradient id="SVGID_39_" gradientUnits="userSpaceOnUse" x1="-78" y1="397" x2="-77" y2="397" gradientTransform="matrix(155.5846 -1.4209 -1.4209 -155.5846 12703.5576 61786.2617)">
                        <stop  offset="0" style="stop-color:#0091D6"/>
                        <stop  offset="0.0133" style="stop-color:#0091D6"/>
                        <stop  offset="0.2613" style="stop-color:#1EB2E8"/>
                        <stop  offset="0.4209" style="stop-color:#29C0D6"/>
                        <stop  offset="0.6244" style="stop-color:#46C1BD"/>
                        <stop  offset="0.7893" style="stop-color:#5BC2A8"/>
                        <stop  offset="1" style="stop-color:#68C295"/>
                    </linearGradient>
                    <polygon clip-path="url(#SVGID_38_)" fill="url(#SVGID_39_)" points="27.493,93.261 99.103,92.607 99.771,165.704 
                        28.161,166.358                  "/>
                </g>
            </g>
        </g>
        <g clip-path="url(#SVGID_4_)">
            <g>
                <defs>
                    <rect id="SVGID_40_" x="51.16" y="94.755" width="86.691" height="69.455"/>
                </defs>
                <clipPath id="SVGID_41_">
                    <use xlink:href="#SVGID_40_"  overflow="visible"/>
                </clipPath>
                <g clip-path="url(#SVGID_41_)">
                    <defs>
                        <path id="SVGID_42_" d="M72.897,120.984l38.725,38.725c6.001,6.001,15.729,6.001,21.729,0c3-3,4.501-6.932,4.501-10.864
                            s-1.501-7.864-4.501-10.864L94.625,99.255c-6-6-15.728-6-21.728,0L51.16,120.976c6-6.001,15.729-6.001,21.729,0
                            L72.897,120.984z"/>
                    </defs>
                    <clipPath id="SVGID_43_">
                        <use xlink:href="#SVGID_42_"  overflow="visible"/>
                    </clipPath>
                    
                        <linearGradient id="SVGID_44_" gradientUnits="userSpaceOnUse" x1="-78" y1="397" x2="-77" y2="397" gradientTransform="matrix(155.5846 -1.4209 -1.4209 -155.5846 12703.6826 61786.6367)">
                        <stop  offset="0" style="stop-color:#0091D6"/>
                        <stop  offset="0.0133" style="stop-color:#0091D6"/>
                        <stop  offset="0.2613" style="stop-color:#1EB2E8"/>
                        <stop  offset="0.4209" style="stop-color:#29C0D6"/>
                        <stop  offset="0.6244" style="stop-color:#46C1BD"/>
                        <stop  offset="0.7893" style="stop-color:#5BC2A8"/>
                        <stop  offset="1" style="stop-color:#68C295"/>
                    </linearGradient>
                    <polygon clip-path="url(#SVGID_43_)" fill="url(#SVGID_44_)" points="50.499,93.261 137.845,92.463 138.514,165.704 
                        51.167,166.502                  "/>
                </g>
            </g>
        </g>
    </g>
</g>
</svg>