<svg xmlns="http://www.w3.org/2000/svg" width="15.5" height="17.714" viewBox="0 0 15.5 17.714"><path d="M5.121,9.964H3.737a.416.416,0,0,1-.415-.415V8.165a.416.416,0,0,1,.415-.415H5.121a.416.416,0,0,1,.415.415V9.549A.416.416,0,0,1,5.121,9.964Zm3.737-.415V8.165a.416.416,0,0,0-.415-.415H7.058a.416.416,0,0,0-.415.415V9.549a.416.416,0,0,0,.415.415H8.442A.416.416,0,0,0,8.857,9.549Zm3.321,0V8.165a.416.416,0,0,0-.415-.415H10.379a.416.416,0,0,0-.415.415V9.549a.416.416,0,0,0,.415.415h1.384A.416.416,0,0,0,12.179,9.549ZM8.857,12.871V11.487a.416.416,0,0,0-.415-.415H7.058a.416.416,0,0,0-.415.415v1.384a.416.416,0,0,0,.415.415H8.442A.416.416,0,0,0,8.857,12.871Zm-3.321,0V11.487a.416.416,0,0,0-.415-.415H3.737a.416.416,0,0,0-.415.415v1.384a.416.416,0,0,0,.415.415H5.121A.416.416,0,0,0,5.536,12.871Zm6.643,0V11.487a.416.416,0,0,0-.415-.415H10.379a.416.416,0,0,0-.415.415v1.384a.416.416,0,0,0,.415.415h1.384A.416.416,0,0,0,12.179,12.871Zm3.321-9V16.054a1.661,1.661,0,0,1-1.661,1.661H1.661A1.661,1.661,0,0,1,0,16.054V3.875A1.661,1.661,0,0,1,1.661,2.214H3.321V.415A.416.416,0,0,1,3.737,0H5.121a.416.416,0,0,1,.415.415v1.8H9.964V.415A.416.416,0,0,1,10.379,0h1.384a.416.416,0,0,1,.415.415v1.8h1.661A1.661,1.661,0,0,1,15.5,3.875ZM13.839,15.846V5.536H1.661v10.31a.208.208,0,0,0,.208.208H13.632A.208.208,0,0,0,13.839,15.846Z" fill="#0071fb"/></svg>